<svg width="158" height="35" viewBox="0 0 158 35" fill="none" xmlns="http://www.w3.org/2000/svg">
<g clip-path="url(#clip0_51027_1829)">
<path fill-rule="evenodd" clip-rule="evenodd" d="M13.0277 32.4173C12.9428 32.4543 12.8581 32.5103 12.6851 32.5058C12.2679 32.4948 12.5557 32.4926 12.428 32.4116C12.5245 32.0923 12.6969 32.1774 13.0744 32.1747C13.6838 32.182 13.5092 32.0438 13.7564 32.2542C13.6075 32.4483 13.3824 32.4353 13.0277 32.4173ZM10.1012 32.2542C10.2628 32.1385 9.92584 32.1466 10.4438 32.1521C11.0984 32.1589 11.3186 32.1703 11.3885 32.4116C11.1723 32.499 11.028 32.4593 10.755 32.4359C10.6655 32.4282 10.4428 32.4205 10.3718 32.4076C9.92753 32.3264 10.2269 32.3862 10.1012 32.2542ZM14.7025 32.0967C14.7671 31.9149 14.6864 31.9913 14.8853 31.9125C15.1486 31.8083 15.49 31.6962 15.6736 31.8606L15.444 32.0024C15.0985 32.127 14.8926 32.2014 14.7025 32.0967ZM8.63106 32.0687C8.42138 32.0075 8.32814 32.0011 8.17351 31.8793C8.3432 31.8031 8.02528 31.6682 8.62452 31.8235C9.0896 31.944 9.06098 31.8664 9.15717 32.0967C8.95021 32.1939 8.90235 32.1479 8.63106 32.0687ZM7.42461 31.5517C7.10752 31.5378 6.71571 31.3307 6.575 31.0477C6.89516 31.0903 6.84135 31.1212 7.10868 31.2565C7.41114 31.4095 7.35583 31.2944 7.42461 31.5517ZM16.4931 31.5899C16.4291 31.2742 16.3829 31.5075 16.5649 31.3464C16.6366 31.2829 16.755 31.2454 16.8254 31.2092C17.0192 31.1096 17.1121 31.0132 17.2826 31.0935C17.145 31.3264 16.7833 31.4792 16.4931 31.5899ZM6.08994 30.6419C5.85344 30.5391 5.94825 30.6521 5.77883 30.4098C5.64417 30.2172 5.70715 30.3071 5.63212 30.0752C5.91612 30.2366 5.96887 30.368 6.08994 30.6419ZM17.7692 30.6104C17.8251 30.4555 18.0227 30.1476 18.2022 30.0868C18.1988 30.2326 18.1583 30.3265 18.0785 30.4389C17.8471 30.7646 18.0906 30.5821 17.7692 30.6104ZM5.46993 29.2307C5.50368 29.054 5.50296 29.1441 5.56181 29.0673C5.62438 29.3331 5.63202 29.3025 5.51413 29.4932C5.50183 29.4681 5.41407 29.5233 5.46993 29.2307ZM18.4073 29.5146C18.2916 29.4027 18.306 29.5121 18.257 29.2992C18.1865 28.9932 18.3082 29.0994 18.3111 29.0928C18.436 29.3117 18.3962 29.2262 18.4073 29.5146ZM4.36569 28.8526C4.19428 29.1854 3.06733 30.1718 3.92355 31.5166C5.29861 33.6763 9.61256 34.2902 12.0672 34.2696C14.3633 34.2504 19.0247 33.5654 20.0611 31.2858C20.6296 30.0353 19.7965 29.2651 19.3286 28.713C19.9249 29.0574 20.8636 30.0744 20.5168 31.2772C19.5436 34.6531 10.1435 35.7021 5.46875 33.3233C4.62914 32.896 3.77109 32.2875 3.4192 31.4801C2.90794 30.3072 3.73125 29.297 4.36569 28.8526ZM5.73999 28.6334C5.81088 28.4085 5.88982 28.3875 6.02696 28.274C6.01015 28.5053 5.99776 28.5138 5.73999 28.6334ZM16.3067 27.2858C16.5953 27.6417 17.1461 27.9856 16.8428 28.7087C16.3103 29.9778 13.3189 30.3746 11.9897 30.3814C10.692 30.388 7.7799 30.0581 7.08572 28.8396C6.91979 28.5483 6.87746 28.2489 7.04 27.9115C7.18149 27.6177 7.38378 27.5279 7.54603 27.281C4.87282 27.6711 1.40375 30.0834 3.85163 32.5349C4.68433 33.3688 5.85437 33.978 7.28899 34.3764C11.2443 35.475 17.3124 35.1819 19.9688 32.6085C21.0315 31.579 21.0779 29.9123 19.9375 28.9419C19.1923 28.3078 17.6176 27.4178 16.3067 27.2858Z" fill="black"/>
<path fill-rule="evenodd" clip-rule="evenodd" d="M12.0406 6.16644C16.5214 6.20537 19.7048 10.1076 19.1263 14.5985C17.7988 22.4898 7.01279 22.6659 5.09306 15.2947C3.91163 10.2604 7.70788 6.08978 12.0406 6.16644ZM12.003 27.599C14.0119 26.4766 16.1691 24.2667 17.4775 22.6851C25.6264 12.8346 19.0893 4.34471 12.0021 4.33229C4.70717 4.31946 -1.59903 12.9109 6.47545 22.613L7.70802 24.0162C8.50833 24.9261 10.9865 27.234 12.003 27.599Z" fill="black"/>
<path fill-rule="evenodd" clip-rule="evenodd" d="M0.0462475 2.98757C-0.255721 4.94644 0.394749 10.482 1.36066 12.3681C3.95685 -1.51472 21.2374 1.26444 22.5671 12.1812C23.7834 9.06226 24.2091 6.01447 23.8952 3.03338C23.1072 2.67581 22.2276 2.1604 21.3797 1.81865C20.419 1.43144 19.5957 1.15129 18.5926 0.86104C14.3946 -0.353608 9.59253 -0.302477 5.39348 0.859961C2.26876 1.72502 1.42723 2.53931 0.0462475 2.98757Z" fill="black"/>
</g>
<path d="M46.4541 28.168C45.2861 28.168 44.2301 27.968 43.2861 27.568C42.3581 27.168 41.6221 26.592 41.0781 25.84C40.5341 25.088 40.2541 24.2 40.2381 23.176H43.8381C43.8861 23.864 44.1261 24.408 44.5581 24.808C45.0061 25.208 45.6141 25.408 46.3821 25.408C47.1661 25.408 47.7821 25.224 48.2301 24.856C48.6781 24.472 48.9021 23.976 48.9021 23.368C48.9021 22.872 48.7501 22.464 48.4461 22.144C48.1421 21.824 47.7581 21.576 47.2941 21.4C46.8461 21.208 46.2221 21 45.4221 20.776C44.3341 20.456 43.4461 20.144 42.7581 19.84C42.0861 19.52 41.5021 19.048 41.0061 18.424C40.5261 17.784 40.2861 16.936 40.2861 15.88C40.2861 14.888 40.5341 14.024 41.0301 13.288C41.5261 12.552 42.2221 11.992 43.1181 11.608C44.0141 11.208 45.0381 11.008 46.1901 11.008C47.9181 11.008 49.3181 11.432 50.3901 12.28C51.4781 13.112 52.0781 14.28 52.1901 15.784H48.4941C48.4621 15.208 48.2141 14.736 47.7501 14.368C47.3021 13.984 46.7021 13.792 45.9501 13.792C45.2941 13.792 44.7661 13.96 44.3661 14.296C43.9821 14.632 43.7901 15.12 43.7901 15.76C43.7901 16.208 43.9341 16.584 44.2221 16.888C44.5261 17.176 44.8941 17.416 45.3261 17.608C45.7741 17.784 46.3981 17.992 47.1981 18.232C48.2861 18.552 49.1741 18.872 49.8621 19.192C50.5501 19.512 51.1421 19.992 51.6381 20.632C52.1341 21.272 52.3821 22.112 52.3821 23.152C52.3821 24.048 52.1501 24.88 51.6861 25.648C51.2221 26.416 50.5421 27.032 49.6461 27.496C48.7501 27.944 47.6861 28.168 46.4541 28.168ZM54.5311 21.304C54.5311 19.96 54.7951 18.768 55.3231 17.728C55.8671 16.688 56.5951 15.888 57.5071 15.328C58.4351 14.768 59.4671 14.488 60.6031 14.488C61.5951 14.488 62.4591 14.688 63.1951 15.088C63.9471 15.488 64.5471 15.992 64.9951 16.6V14.704H68.3791V28H64.9951V26.056C64.5631 26.68 63.9631 27.2 63.1951 27.616C62.4431 28.016 61.5711 28.216 60.5791 28.216C59.4591 28.216 58.4351 27.928 57.5071 27.352C56.5951 26.776 55.8671 25.968 55.3231 24.928C54.7951 23.872 54.5311 22.664 54.5311 21.304ZM64.9951 21.352C64.9951 20.536 64.8351 19.84 64.5151 19.264C64.1951 18.672 63.7631 18.224 63.2191 17.92C62.6751 17.6 62.0911 17.44 61.4671 17.44C60.8431 17.44 60.2671 17.592 59.7391 17.896C59.2111 18.2 58.7791 18.648 58.4431 19.24C58.1231 19.816 57.9631 20.504 57.9631 21.304C57.9631 22.104 58.1231 22.808 58.4431 23.416C58.7791 24.008 59.2111 24.464 59.7391 24.784C60.2831 25.104 60.8591 25.264 61.4671 25.264C62.0911 25.264 62.6751 25.112 63.2191 24.808C63.7631 24.488 64.1951 24.04 64.5151 23.464C64.8351 22.872 64.9951 22.168 64.9951 21.352ZM77.8567 17.464H75.5287V28H72.1207V17.464H70.6087V14.704H72.1207V14.032C72.1207 12.4 72.5847 11.2 73.5127 10.432C74.4407 9.664 75.8407 9.304 77.7127 9.352V12.184C76.8967 12.168 76.3287 12.304 76.0087 12.592C75.6887 12.88 75.5287 13.4 75.5287 14.152V14.704H77.8567V17.464ZM92.4941 21.064C92.4941 21.544 92.4621 21.976 92.3981 22.36H82.6781C82.7581 23.32 83.0941 24.072 83.6861 24.616C84.2781 25.16 85.0061 25.432 85.8701 25.432C87.1181 25.432 88.0061 24.896 88.5341 23.824H92.1581C91.7741 25.104 91.0381 26.16 89.9501 26.992C88.8621 27.808 87.5261 28.216 85.9421 28.216C84.6621 28.216 83.5101 27.936 82.4861 27.376C81.4781 26.8 80.6861 25.992 80.1101 24.952C79.5501 23.912 79.2701 22.712 79.2701 21.352C79.2701 19.976 79.5501 18.768 80.1101 17.728C80.6701 16.688 81.4541 15.888 82.4621 15.328C83.4701 14.768 84.6301 14.488 85.9421 14.488C87.2061 14.488 88.3341 14.76 89.3261 15.304C90.3341 15.848 91.1101 16.624 91.6541 17.632C92.2141 18.624 92.4941 19.768 92.4941 21.064ZM89.0141 20.104C88.9981 19.24 88.6861 18.552 88.0781 18.04C87.4701 17.512 86.7261 17.248 85.8461 17.248C85.0141 17.248 84.3101 17.504 83.7341 18.016C83.1741 18.512 82.8301 19.208 82.7021 20.104H89.0141ZM98.4066 25.336H103.927V28H95.0466V11.248H98.4066V25.336ZM105.298 21.304C105.298 19.96 105.562 18.768 106.09 17.728C106.634 16.688 107.362 15.888 108.274 15.328C109.202 14.768 110.234 14.488 111.37 14.488C112.362 14.488 113.226 14.688 113.962 15.088C114.714 15.488 115.314 15.992 115.762 16.6V14.704H119.146V28H115.762V26.056C115.33 26.68 114.73 27.2 113.962 27.616C113.21 28.016 112.338 28.216 111.346 28.216C110.226 28.216 109.202 27.928 108.274 27.352C107.362 26.776 106.634 25.968 106.09 24.928C105.562 23.872 105.298 22.664 105.298 21.304ZM115.762 21.352C115.762 20.536 115.602 19.84 115.282 19.264C114.962 18.672 114.53 18.224 113.986 17.92C113.442 17.6 112.858 17.44 112.234 17.44C111.61 17.44 111.034 17.592 110.506 17.896C109.978 18.2 109.546 18.648 109.21 19.24C108.89 19.816 108.73 20.504 108.73 21.304C108.73 22.104 108.89 22.808 109.21 23.416C109.546 24.008 109.978 24.464 110.506 24.784C111.05 25.104 111.626 25.264 112.234 25.264C112.858 25.264 113.442 25.112 113.986 24.808C114.53 24.488 114.962 24.04 115.282 23.464C115.602 22.872 115.762 22.168 115.762 21.352ZM129.896 14.512C131.48 14.512 132.76 15.016 133.736 16.024C134.712 17.016 135.2 18.408 135.2 20.2V28H131.84V20.656C131.84 19.6 131.576 18.792 131.048 18.232C130.52 17.656 129.8 17.368 128.888 17.368C127.96 17.368 127.224 17.656 126.68 18.232C126.152 18.792 125.888 19.6 125.888 20.656V28H122.528V14.704H125.888V16.36C126.336 15.784 126.904 15.336 127.592 15.016C128.296 14.68 129.064 14.512 129.896 14.512ZM150.855 21.064C150.855 21.544 150.823 21.976 150.759 22.36H141.039C141.119 23.32 141.455 24.072 142.047 24.616C142.639 25.16 143.367 25.432 144.231 25.432C145.479 25.432 146.367 24.896 146.895 23.824H150.519C150.135 25.104 149.399 26.16 148.311 26.992C147.223 27.808 145.887 28.216 144.303 28.216C143.023 28.216 141.871 27.936 140.847 27.376C139.839 26.8 139.047 25.992 138.471 24.952C137.911 23.912 137.631 22.712 137.631 21.352C137.631 19.976 137.911 18.768 138.471 17.728C139.031 16.688 139.815 15.888 140.823 15.328C141.831 14.768 142.991 14.488 144.303 14.488C145.567 14.488 146.695 14.76 147.687 15.304C148.695 15.848 149.471 16.624 150.015 17.632C150.575 18.624 150.855 19.768 150.855 21.064ZM147.375 20.104C147.359 19.24 147.047 18.552 146.439 18.04C145.831 17.512 145.087 17.248 144.207 17.248C143.375 17.248 142.671 17.504 142.095 18.016C141.535 18.512 141.191 19.208 141.063 20.104H147.375ZM154.896 28.168C154.288 28.168 153.784 27.984 153.384 27.616C153 27.232 152.808 26.76 152.808 26.2C152.808 25.64 153 25.176 153.384 24.808C153.784 24.424 154.288 24.232 154.896 24.232C155.488 24.232 155.976 24.424 156.36 24.808C156.744 25.176 156.936 25.64 156.936 26.2C156.936 26.76 156.744 27.232 156.36 27.616C155.976 27.984 155.488 28.168 154.896 28.168Z" fill="black"/>
<defs>
<clipPath id="clip0_51027_1829">
<rect width="24" height="35" fill="white"/>
</clipPath>
</defs>
</svg>
