<svg width="25" height="73" viewBox="0 0 25 73" fill="none" xmlns="http://www.w3.org/2000/svg">
<g clip-path="url(#clip0_51027_1800)">
<path d="M12.4999 50.0834C8.46867 50.0834 5.20825 53.3438 5.20825 57.375C5.20825 62.8438 12.4999 70.9167 12.4999 70.9167C12.4999 70.9167 19.7916 62.8438 19.7916 57.375C19.7916 53.3438 16.5312 50.0834 12.4999 50.0834ZM12.4999 59.9792C11.0624 59.9792 9.89575 58.8125 9.89575 57.375C9.89575 55.9375 11.0624 54.7709 12.4999 54.7709C13.9374 54.7709 15.1041 55.9375 15.1041 57.375C15.1041 58.8125 13.9374 59.9792 12.4999 59.9792Z" fill="#13151B"/>
</g>
<path d="M23 10C23 15.5228 18.5228 20 13 20C7.47715 20 3 15.5228 3 10C3 4.47715 7.47715 0 13 0C18.5228 0 23 4.47715 23 10ZM6.92052 10C6.92052 13.3576 9.6424 16.0795 13 16.0795C16.3576 16.0795 19.0795 13.3576 19.0795 10C19.0795 6.6424 16.3576 3.92052 13 3.92052C9.6424 3.92052 6.92052 6.6424 6.92052 10Z" fill="#13151B"/>
<circle cx="12.5" cy="27.5" r="1.5" fill="#13151B"/>
<circle cx="12.5" cy="35.5" r="1.5" fill="#13151B"/>
<circle cx="12.5" cy="43.5" r="1.5" fill="#13151B"/>
<defs>
<clipPath id="clip0_51027_1800">
<rect width="25" height="25" fill="white" transform="translate(0 48)"/>
</clipPath>
</defs>
</svg>
