<svg width="300" height="280" viewBox="0 0 300 280" fill="none" xmlns="http://www.w3.org/2000/svg">
<g clip-path="url(#clip0_129_1255)">
<path d="M20.4398 262.492C18.9976 262.492 17.5524 262.56 16.1411 262.699L15.9357 262.719C6.57423 263.671 -0.273237 269.198 0.00837928 275.575L0.06282 276.729C0.0987267 277.457 0.136978 278.241 0.168461 279.111C0.185513 279.539 0.693739 279.868 1.32613 279.868H231.595C247.83 279.755 264.007 279.612 279.672 279.444C282.612 279.451 285.55 279.276 288.468 278.919C292.821 278.326 295.843 277.15 297.706 275.325H297.707C300.024 273.061 300.097 270.21 299.957 266.989C299.671 260.486 299.388 253.653 299.106 246.842C298.856 240.839 298.608 234.852 298.36 229.119C298.206 225.718 297.865 222.715 295.233 220.421C292.381 217.939 287.18 216.681 279.773 216.681C279.683 216.681 279.594 216.681 279.504 216.681C256.291 216.776 233.291 225.965 222.272 239.546C221.003 241.109 219.821 242.784 218.677 244.403C217.006 246.889 215.161 249.254 213.156 251.48C212.043 252.68 210.822 253.776 209.509 254.753C209.419 254.824 209.317 254.901 209.209 254.973C208.961 255.159 208.702 255.338 208.449 255.498C206.989 256.471 205.43 257.287 203.798 257.932L203.635 257.995C203.512 258.046 203.379 258.096 203.246 258.142C202.306 258.489 201.347 258.784 200.374 259.026C196.173 260.092 191.397 260.347 186.178 259.785C181.358 259.248 176.619 258.136 172.063 256.474C167.23 254.715 162.706 252.523 158.332 250.403C156.41 249.471 154.423 248.509 152.438 247.596C152.065 247.424 151.698 247.257 151.325 247.089C148.901 246.001 146.703 245.103 144.606 244.342C139.455 242.461 134.065 241.311 128.594 240.928C122.821 240.564 117.733 241.251 113.476 242.963C112.294 243.438 111.151 244.005 110.057 244.659C105.015 247.674 101.906 252.122 98.9007 256.425C95.1617 261.776 91.2952 267.31 83.6606 270.179C74.8509 273.492 61.9917 272.115 52.8939 269.722C50.0336 268.969 47.1767 268.103 44.4138 267.265C43.2979 266.927 42.1812 266.591 41.0638 266.257C38.8679 265.604 37.0708 265.104 35.4081 264.682L34.8823 264.548C34.5898 264.474 34.297 264.401 33.9989 264.332C32.024 263.854 30.1851 263.479 28.3741 263.183L27.9456 263.111C27.0867 262.981 26.2836 262.873 25.4955 262.782L25.181 262.746C23.6063 262.575 22.0236 262.491 20.4398 262.492V262.492Z" fill="#F2F2F2"/>
<path d="M145.84 137.922C145.146 138.022 144.439 137.969 143.769 137.766C143.098 137.563 142.48 137.216 141.958 136.749C141.436 136.282 141.023 135.706 140.747 135.062C140.472 134.418 140.341 133.721 140.364 133.021L124.467 126.912L131.665 121.763L145.657 128.354C146.831 128.47 147.921 129.013 148.722 129.88C149.522 130.747 149.976 131.877 149.999 133.057C150.021 134.236 149.61 135.383 148.843 136.28C148.077 137.177 147.008 137.761 145.839 137.922L145.84 137.922Z" fill="#FFB7B7"/>
<path d="M136.755 133.539L139.238 124.784L139.115 124.701L115.865 108.907L95.7673 88.7406L84.0598 93.4182L84.8286 97.1237L84.8788 97.1692L111.6 121.103L111.625 121.115L136.755 133.539Z" fill="#3F3D56"/>
<path d="M112.938 153.538L76.9553 148.494L80.1221 126.415H106.613L112.938 153.538Z" fill="#FFB6B6"/>
<path d="M51.7978 261.652L59.179 263.367L69.3076 235.713L58.4138 233.182L51.7978 261.652Z" fill="#FFB6B6"/>
<path d="M44.9302 273.535L50.2235 274.765L52.3296 269.987L53.5881 275.547L67.6271 278.81C68.3 278.966 69.0053 278.903 69.64 278.631C70.2748 278.358 70.8057 277.889 71.1552 277.293C71.5048 276.697 71.6547 276.005 71.5831 275.318C71.5115 274.631 71.2221 273.985 70.7571 273.474L61.3454 263.126L62.5195 258.073L50.5638 256.037L44.9302 273.535Z" fill="#2F2E41"/>
<path d="M97.3414 265.765H104.919L108.525 236.537H97.3414V265.765Z" fill="#FFB6B6"/>
<path d="M93.3419 278.895H98.7761L99.7461 273.764L102.23 278.895H116.643C117.334 278.895 118.007 278.674 118.564 278.264C119.12 277.855 119.531 277.278 119.737 276.619C119.942 275.959 119.932 275.251 119.706 274.598C119.481 273.945 119.053 273.381 118.484 272.988L106.975 265.039V259.853L94.8684 260.575L93.3419 278.895Z" fill="#2F2E41"/>
<path d="M76.5002 144.748L111.689 141.948C122.073 166.205 115.471 204.928 107.491 248.518L96.1723 249.982L95.2944 179.937L66.9212 245.1L55.1249 244.497L76.5002 144.748Z" fill="#2F2E41"/>
<path d="M96.9833 80.8731V68.9681C96.9833 64.7373 95.3026 60.6797 92.3109 57.6881C89.3193 54.6964 85.2617 53.0157 81.0309 53.0157C76.8 53.0157 72.7425 54.6964 69.7508 57.6881C66.7591 60.6797 65.0784 64.7373 65.0784 68.9681C62.2668 74.827 64.0258 77.6126 65.0784 80.8731C65.0794 81.4409 65.3054 81.9851 65.7068 82.3866C66.1083 82.7881 66.6526 83.014 67.2203 83.015H94.8403C95.4083 83.0143 95.9528 82.7885 96.3545 82.387C96.7562 81.9855 96.9823 81.4411 96.9833 80.8731Z" fill="#2F2E41"/>
<path d="M84.9676 82.8355C91.4271 82.8355 96.6635 77.5991 96.6635 71.1396C96.6635 64.6801 91.4271 59.4437 84.9676 59.4437C78.5082 59.4437 73.2717 64.6801 73.2717 71.1396C73.2717 77.5991 78.5082 82.8355 84.9676 82.8355Z" fill="#FFB7B7"/>
<path d="M100.757 69.9202C100.753 66.5746 99.4226 63.3672 97.057 61.0015C94.6913 58.6358 91.4838 57.3051 88.1382 57.3013H85.7571C82.4115 57.3051 79.204 58.6358 76.8383 61.0014C74.4726 63.3671 73.1419 66.5746 73.1381 69.9202V70.1584C74.9214 71.3775 76.6143 71.5558 78.1701 70.1584L79.8862 65.3528L80.2294 70.1584H82.8303L83.6972 67.7339L83.8706 70.1584C87.3836 73.1502 94.0264 71.7165 100.757 70.1584V69.9202Z" fill="#2F2E41"/>
<path d="M78.1476 132.868L107.926 131.735L109.591 112.254C110.875 108.688 110.895 105.624 109.653 103.154C108.584 101.123 106.788 99.5708 104.624 98.8071L98.1077 90.937C97.2695 89.9255 96.217 89.1129 95.0263 88.5578C93.8357 88.0027 92.5366 87.719 91.2229 87.7272L74.2916 87.843C73.8836 87.5977 71.4082 86.3396 66.5261 88.455C61.231 90.7499 62.4606 98.7229 62.4738 98.8029L62.4861 98.8779L62.5442 98.9289L73.8056 108.415L78.1476 132.868Z" fill="#3F3D56"/>
<path d="M213.851 98.6157C194.635 120.271 136.82 124.402 99.1863 164.153C86.5694 125.73 104.443 59.4042 122.255 34.1107C130.809 21.9643 143.838 13.7134 158.475 11.1732C173.113 8.63293 188.16 12.0114 200.306 20.5653C225.599 38.3778 234.384 75.4759 213.851 98.6157Z" fill="#005FFF"/>
<path d="M167.291 77.8408C177.381 77.8408 185.56 69.6618 185.56 59.5724C185.56 49.4831 177.381 41.3041 167.291 41.3041C157.202 41.3041 149.023 49.4831 149.023 59.5724C149.023 69.6618 157.202 77.8408 167.291 77.8408Z" fill="white"/>
<path d="M83.7432 184.048C90.3515 184.048 95.7086 178.691 95.7086 172.083C95.7086 165.475 90.3515 160.118 83.7432 160.118C77.1349 160.118 71.7778 165.475 71.7778 172.083C71.7778 178.691 77.1349 184.048 83.7432 184.048Z" fill="#005FFF"/>
<path d="M70.0548 171.218C69.5337 170.749 69.1216 170.173 68.8473 169.528C68.5731 168.884 68.4434 168.187 68.4675 167.487C68.4916 166.787 68.6688 166.1 68.9866 165.476C69.3044 164.852 69.7552 164.305 70.3072 163.874L64.8081 147.756L73.3758 149.981L77.2802 164.945C77.9436 165.921 78.2259 167.106 78.0736 168.276C77.9213 169.446 77.3449 170.52 76.4538 171.293C75.5627 172.067 74.4188 172.486 73.239 172.472C72.0592 172.458 70.9254 172.012 70.0528 171.218L70.0548 171.218Z" fill="#FFB7B7"/>
<path d="M67.5982 161.436L75.9109 157.732L73.1182 129.615L75.7191 101.263L64.6204 95.2734L62.2689 98.2384V98.3057L61.023 134.157L61.0296 134.184L67.5982 161.436Z" fill="#3F3D56"/>
<path d="M265.802 214.767C265.221 216.946 263.695 218.761 261.852 220.083C261.551 220.3 261.243 220.5 260.93 220.688C260.834 220.744 260.738 220.804 260.638 220.856C260.53 220.921 260.421 220.981 260.313 221.037H251.647C251.491 220.72 251.338 220.4 251.186 220.083C247.472 212.278 244.864 203.857 245.309 195.279C245.485 191.951 246.184 188.673 247.38 185.563C249.76 179.365 254.103 174 260.077 171.3C260.225 171.231 260.381 171.163 260.534 171.099C260.485 171.271 260.437 171.44 260.389 171.612C259.748 173.921 259.296 176.278 259.035 178.66C259.011 178.844 258.991 179.028 258.975 179.216C258.406 184.961 258.911 190.761 260.465 196.32C260.469 196.332 260.473 196.348 260.477 196.36C260.818 197.59 261.213 198.802 261.663 199.994C262.016 200.936 262.397 201.865 262.813 202.779C264.552 206.613 266.884 210.7 265.802 214.767Z" fill="#E6E6E6"/>
<path d="M260.642 171.279C260.558 171.392 260.473 171.5 260.389 171.612C258.63 173.944 257.135 176.465 255.934 179.128C255.87 179.261 255.81 179.393 255.758 179.529C254.112 183.248 253.055 187.2 252.625 191.244C252.62 191.272 252.617 191.3 252.617 191.328C252.516 192.274 252.456 193.227 252.432 194.181C252.343 195.968 252.537 197.758 253.005 199.486C253.433 200.896 254.181 202.188 255.193 203.26C255.293 203.368 255.393 203.476 255.501 203.58C255.581 203.664 255.67 203.749 255.754 203.829C256.563 204.602 257.449 205.319 258.21 206.148C258.559 206.52 258.874 206.923 259.151 207.35C259.594 208.067 259.88 208.87 259.991 209.706C260.101 210.541 260.034 211.391 259.792 212.198C259.247 214.226 258.001 215.936 256.727 217.567C256.09 218.384 255.433 219.21 254.864 220.083C254.656 220.396 254.464 220.712 254.287 221.037H253.783C253.951 220.712 254.135 220.396 254.335 220.083C255.798 217.779 257.877 215.8 258.955 213.264C259.684 211.553 259.905 209.614 258.983 207.935C258.713 207.447 258.386 206.993 258.009 206.581C257.276 205.752 256.399 205.043 255.602 204.293C255.401 204.105 255.205 203.913 255.017 203.712C254.018 202.698 253.248 201.482 252.757 200.147C252.201 198.45 251.938 196.671 251.98 194.886C251.98 193.748 252.04 192.602 252.152 191.464C252.164 191.32 252.18 191.172 252.196 191.024C253.015 183.863 255.736 177.053 260.077 171.3C260.157 171.187 260.241 171.079 260.325 170.971C260.497 170.747 260.814 171.059 260.642 171.279Z" fill="white"/>
<path d="M252.358 191.502C250.97 191.269 249.71 190.55 248.804 189.474C247.897 188.398 247.402 187.035 247.408 185.628C247.409 185.57 247.432 185.515 247.472 185.475C247.512 185.434 247.567 185.41 247.624 185.409C247.682 185.408 247.737 185.429 247.78 185.468C247.822 185.507 247.847 185.561 247.85 185.618C247.843 186.928 248.304 188.198 249.15 189.199C249.996 190.199 251.172 190.864 252.466 191.073C252.747 191.119 252.637 191.548 252.358 191.502V191.502Z" fill="white"/>
<path d="M255.082 203.34C257.439 201.692 259.089 199.216 259.702 196.406C259.763 196.127 260.192 196.236 260.131 196.514C259.488 199.437 257.766 202.011 255.308 203.72C255.074 203.883 254.849 203.502 255.082 203.34H255.082Z" fill="white"/>
<path d="M255.801 179.081C256.32 179.284 256.88 179.354 257.432 179.286C257.984 179.218 258.51 179.014 258.964 178.692C259.196 178.526 259.421 178.908 259.191 179.072C258.688 179.425 258.106 179.65 257.497 179.726C256.887 179.803 256.268 179.729 255.693 179.511C255.637 179.495 255.59 179.458 255.56 179.408C255.53 179.358 255.52 179.299 255.533 179.242C255.547 179.185 255.584 179.136 255.634 179.106C255.684 179.076 255.745 179.067 255.801 179.081Z" fill="white"/>
<path d="M290.699 186.773C290.559 186.881 290.414 186.989 290.274 187.101C288.372 188.557 286.591 190.165 284.949 191.909C284.821 192.041 284.693 192.178 284.569 192.314L284.565 192.318C280.672 196.544 277.594 201.453 275.486 206.797L275.474 206.834C275.47 206.846 275.466 206.854 275.462 206.866C274.626 209.005 273.953 211.204 273.447 213.444C272.958 215.632 272.557 217.976 271.792 220.083C271.676 220.408 271.548 220.728 271.411 221.037H253.598C253.658 220.72 253.722 220.4 253.787 220.083C254.693 215.441 256.109 210.913 258.009 206.581C258.074 206.437 258.138 206.293 258.21 206.148C259.191 204.008 260.345 201.951 261.659 199.998C261.659 199.998 261.659 199.997 261.66 199.997C261.66 199.996 261.66 199.996 261.661 199.996C261.661 199.995 261.661 199.995 261.662 199.995C261.662 199.994 261.663 199.994 261.663 199.994C262.385 198.929 263.161 197.9 263.987 196.913C266.13 194.364 268.661 192.168 271.487 190.407C271.503 190.395 271.523 190.387 271.54 190.375C277.165 186.885 283.832 185.222 290.206 186.661H290.21C290.374 186.697 290.535 186.733 290.699 186.773Z" fill="#E6E6E6"/>
<path d="M290.679 186.985C290.543 187.021 290.406 187.061 290.274 187.101C287.466 187.904 284.756 189.015 282.193 190.415C282.065 190.483 281.936 190.555 281.808 190.627C278.266 192.604 275.051 195.116 272.277 198.075C272.275 198.077 272.273 198.08 272.273 198.083C272.241 198.115 272.205 198.151 272.177 198.183C271.535 198.873 270.918 199.59 270.334 200.327C269.189 201.701 268.267 203.247 267.601 204.906C267.092 206.29 266.912 207.773 267.076 209.237C267.088 209.386 267.108 209.53 267.128 209.678C267.144 209.794 267.16 209.911 267.18 210.031C267.445 211.637 267.902 213.248 267.773 214.887C267.695 215.726 267.44 216.54 267.025 217.274C266.61 218.008 266.045 218.646 265.365 219.146C264.904 219.503 264.41 219.816 263.891 220.083C263.149 220.466 262.375 220.785 261.579 221.037H260.005C260.217 220.977 260.425 220.917 260.638 220.856C261.391 220.644 262.131 220.386 262.853 220.083C263.266 219.911 263.667 219.713 264.055 219.49C265.666 218.565 267.008 217.146 267.289 215.251C267.533 213.593 267.06 211.934 266.78 210.311C266.732 210.031 266.688 209.754 266.664 209.478C266.472 208.073 266.588 206.643 267.004 205.287C267.581 203.596 268.442 202.016 269.552 200.615C270.239 199.704 270.972 198.828 271.748 197.991C271.844 197.883 271.944 197.775 272.048 197.667C274.881 194.686 278.152 192.156 281.748 190.162H281.752C284.426 188.674 287.263 187.499 290.206 186.661H290.21C290.342 186.621 290.478 186.58 290.611 186.544C290.887 186.472 290.951 186.909 290.679 186.985Z" fill="white"/>
<path d="M271.89 198.143C270.922 197.122 270.349 195.789 270.273 194.384C270.197 192.979 270.623 191.593 271.475 190.472C271.648 190.246 272.007 190.505 271.834 190.731C271.039 191.773 270.642 193.064 270.716 194.372C270.789 195.681 271.328 196.92 272.235 197.866C272.431 198.072 272.086 198.348 271.89 198.143V198.143Z" fill="white"/>
<path d="M266.937 209.235C269.812 209.339 272.62 208.355 274.802 206.48C275.018 206.294 275.295 206.639 275.079 206.825C272.806 208.772 269.881 209.79 266.89 209.675C266.605 209.664 266.654 209.224 266.937 209.235V209.235Z" fill="white"/>
<path d="M282.118 190.299C282.41 190.772 282.815 191.166 283.297 191.444C283.778 191.722 284.321 191.876 284.877 191.892C285.162 191.9 285.113 192.34 284.83 192.332C284.216 192.311 283.616 192.141 283.083 191.835C282.55 191.528 282.1 191.097 281.773 190.577C281.738 190.53 281.722 190.472 281.728 190.414C281.735 190.357 281.763 190.303 281.807 190.265C281.853 190.229 281.911 190.212 281.969 190.218C282.027 190.225 282.081 190.254 282.118 190.299V190.299Z" fill="white"/>
<path d="M157.85 272.358C157.269 274.538 155.742 276.353 153.899 277.675C153.599 277.891 153.29 278.091 152.978 278.28C152.882 278.336 152.785 278.396 152.685 278.448C152.577 278.512 152.469 278.572 152.361 278.628H143.695C143.538 278.312 143.386 277.991 143.234 277.675C139.52 269.87 136.912 261.448 137.356 252.87C137.533 249.543 138.232 246.264 139.428 243.154C141.808 236.956 146.151 231.591 152.124 228.891C152.273 228.823 152.429 228.755 152.581 228.691C152.533 228.863 152.485 229.031 152.437 229.204C151.796 231.512 151.343 233.869 151.083 236.251C151.059 236.435 151.039 236.62 151.023 236.808C150.453 242.552 150.959 248.353 152.513 253.912C152.517 253.924 152.521 253.94 152.525 253.952C152.866 255.182 153.261 256.393 153.711 257.586C154.064 258.527 154.444 259.457 154.861 260.37C156.6 264.205 158.931 268.291 157.85 272.358Z" fill="#E6E6E6"/>
<path d="M152.689 228.871C152.605 228.983 152.521 229.091 152.437 229.204C150.677 231.536 149.183 234.057 147.982 236.72C147.918 236.852 147.857 236.984 147.805 237.12C146.159 240.839 145.102 244.792 144.672 248.836C144.668 248.863 144.665 248.892 144.664 248.92C144.564 249.865 144.504 250.819 144.48 251.772C144.391 253.56 144.584 255.35 145.053 257.077C145.48 258.487 146.229 259.779 147.24 260.851C147.341 260.959 147.441 261.068 147.549 261.172C147.629 261.256 147.717 261.34 147.801 261.42C148.611 262.193 149.496 262.911 150.257 263.74C150.606 264.112 150.921 264.514 151.199 264.942C151.642 265.659 151.928 266.462 152.038 267.297C152.149 268.133 152.081 268.982 151.84 269.79C151.295 271.817 150.049 273.528 148.775 275.159C148.138 275.976 147.481 276.801 146.912 277.675C146.704 277.987 146.511 278.304 146.335 278.628H145.83C145.998 278.304 146.183 277.987 146.383 277.675C147.845 275.371 149.925 273.392 151.003 270.856C151.732 269.145 151.952 267.206 151.031 265.527C150.761 265.039 150.434 264.584 150.057 264.173C149.324 263.343 148.446 262.634 147.649 261.885C147.449 261.697 147.252 261.504 147.064 261.304C146.066 260.29 145.295 259.074 144.804 257.738C144.248 256.041 143.986 254.262 144.027 252.478C144.027 251.34 144.087 250.194 144.199 249.056C144.212 248.912 144.228 248.763 144.244 248.615C145.063 241.455 147.784 234.644 152.124 228.891C152.205 228.779 152.289 228.671 152.373 228.562C152.545 228.338 152.862 228.651 152.689 228.871Z" fill="white"/>
<path d="M144.405 249.094C143.017 248.861 141.758 248.142 140.851 247.066C139.944 245.99 139.45 244.626 139.455 243.219C139.456 243.162 139.479 243.107 139.52 243.066C139.56 243.025 139.615 243.002 139.672 243.001C139.729 242.999 139.785 243.021 139.827 243.059C139.869 243.098 139.895 243.152 139.898 243.21C139.89 244.52 140.351 245.79 141.197 246.79C142.044 247.791 143.22 248.455 144.513 248.665C144.795 248.711 144.685 249.139 144.405 249.094V249.094Z" fill="white"/>
<path d="M147.129 260.932C149.487 259.284 151.137 256.808 151.75 253.997C151.811 253.719 152.24 253.827 152.179 254.106C151.536 257.029 149.813 259.602 147.356 261.312C147.122 261.475 146.896 261.094 147.129 260.932V260.932Z" fill="white"/>
<path d="M147.849 236.673C148.367 236.875 148.927 236.945 149.479 236.877C150.031 236.809 150.558 236.605 151.012 236.284C151.244 236.118 151.469 236.499 151.238 236.664C150.736 237.017 150.154 237.241 149.544 237.318C148.934 237.394 148.315 237.32 147.741 237.102C147.685 237.086 147.637 237.049 147.607 236.999C147.578 236.95 147.568 236.89 147.58 236.833C147.595 236.777 147.631 236.728 147.682 236.698C147.732 236.668 147.792 236.659 147.849 236.673V236.673Z" fill="white"/>
<path d="M182.746 244.364C182.606 244.472 182.462 244.581 182.322 244.693C180.419 246.149 178.639 247.756 176.997 249.501C176.869 249.633 176.741 249.769 176.616 249.905L176.612 249.909C172.72 254.135 169.642 259.044 167.533 264.389L167.521 264.425C167.517 264.437 167.513 264.445 167.509 264.457C166.674 266.596 166 268.796 165.494 271.036C165.005 273.223 164.605 275.567 163.839 277.675C163.723 277.999 163.595 278.32 163.459 278.628H145.646C145.706 278.312 145.77 277.991 145.834 277.675C146.74 273.032 148.156 268.504 150.057 264.173C150.121 264.028 150.185 263.884 150.257 263.74C151.238 261.6 152.392 259.543 153.707 257.59C153.707 257.589 153.707 257.589 153.707 257.588C153.707 257.588 153.708 257.587 153.708 257.587C153.708 257.587 153.709 257.586 153.709 257.586C153.71 257.586 153.71 257.586 153.711 257.586C154.433 256.52 155.208 255.492 156.035 254.505C158.177 251.955 160.709 249.76 163.535 247.998C163.551 247.986 163.571 247.978 163.587 247.966C169.212 244.476 175.879 242.814 182.254 244.252H182.258C182.422 244.288 182.582 244.324 182.746 244.364Z" fill="#E6E6E6"/>
<path d="M182.726 244.577C182.59 244.613 182.454 244.653 182.322 244.693C179.514 245.495 176.803 246.606 174.24 248.006C174.112 248.074 173.984 248.146 173.856 248.219C170.314 250.195 167.099 252.708 164.324 255.667C164.322 255.669 164.321 255.672 164.32 255.675C164.288 255.707 164.252 255.743 164.224 255.775C163.583 256.464 162.966 257.181 162.381 257.918C161.237 259.293 160.315 260.838 159.649 262.498C159.14 263.881 158.96 265.364 159.124 266.829C159.136 266.977 159.156 267.121 159.176 267.27C159.192 267.386 159.208 267.502 159.228 267.622C159.492 269.229 159.949 270.84 159.821 272.478C159.743 273.318 159.488 274.131 159.073 274.866C158.658 275.6 158.092 276.237 157.413 276.737C156.951 277.094 156.458 277.408 155.939 277.675C155.196 278.057 154.423 278.376 153.627 278.628H152.052C152.265 278.568 152.473 278.508 152.685 278.448C153.439 278.235 154.179 277.977 154.901 277.675C155.313 277.502 155.715 277.304 156.103 277.082C157.713 276.156 159.056 274.738 159.336 272.843C159.581 271.184 159.108 269.525 158.827 267.903C158.779 267.622 158.735 267.346 158.711 267.069C158.52 265.664 158.636 264.234 159.052 262.879C159.628 261.187 160.49 259.607 161.6 258.207C162.286 257.295 163.019 256.419 163.795 255.583C163.892 255.474 163.992 255.366 164.096 255.258C166.929 252.278 170.2 249.747 173.796 247.754H173.8C176.474 246.265 179.31 245.09 182.254 244.252H182.258C182.39 244.212 182.526 244.172 182.658 244.136C182.935 244.064 182.999 244.5 182.726 244.577Z" fill="white"/>
<path d="M163.937 255.735C162.97 254.713 162.397 253.381 162.321 251.976C162.245 250.57 162.67 249.184 163.522 248.064C163.695 247.838 164.055 248.096 163.881 248.323C163.086 249.364 162.69 250.656 162.763 251.964C162.837 253.272 163.375 254.511 164.282 255.457C164.479 255.663 164.133 255.939 163.937 255.735V255.735Z" fill="white"/>
<path d="M158.985 266.827C161.86 266.93 164.668 265.947 166.85 264.072C167.066 263.886 167.343 264.231 167.127 264.417C164.853 266.363 161.929 267.381 158.937 267.267C158.652 267.255 158.702 266.816 158.985 266.827V266.827Z" fill="white"/>
<path d="M174.165 247.891C174.457 248.364 174.862 248.757 175.344 249.035C175.826 249.313 176.369 249.468 176.925 249.484C177.21 249.491 177.16 249.931 176.877 249.924C176.263 249.903 175.663 249.732 175.131 249.426C174.598 249.12 174.148 248.688 173.821 248.168C173.786 248.122 173.77 248.064 173.776 248.006C173.782 247.948 173.81 247.895 173.854 247.857C173.9 247.82 173.958 247.804 174.017 247.81C174.075 247.816 174.128 247.845 174.165 247.891V247.891Z" fill="white"/>
<path d="M177.116 163.267C179.771 163.267 181.924 161.114 181.924 158.459C181.924 155.803 179.771 153.651 177.116 153.651C174.46 153.651 172.308 155.803 172.308 158.459C172.308 161.114 174.46 163.267 177.116 163.267Z" fill="#F2F2F2"/>
<path d="M236.842 105.676C239.497 105.676 241.65 103.523 241.65 100.868C241.65 98.2126 239.497 96.06 236.842 96.06C234.187 96.06 232.034 98.2126 232.034 100.868C232.034 103.523 234.187 105.676 236.842 105.676Z" fill="#F2F2F2"/>
<path d="M71.7746 9.61571C74.4299 9.61571 76.5824 7.46316 76.5824 4.80785C76.5824 2.15255 74.4299 0 71.7746 0C69.1193 0 66.9667 2.15255 66.9667 4.80785C66.9667 7.46316 69.1193 9.61571 71.7746 9.61571Z" fill="#F2F2F2"/>
<path d="M0.49962 279.394H299.5C299.633 279.394 299.76 279.342 299.854 279.248C299.947 279.154 300 279.027 300 278.895C300 278.762 299.947 278.635 299.854 278.541C299.76 278.448 299.633 278.395 299.5 278.395H0.49962C0.367113 278.395 0.240035 278.448 0.146339 278.541C0.0526427 278.635 0 278.762 0 278.895C0 279.027 0.0526427 279.154 0.146339 279.248C0.240035 279.342 0.367113 279.394 0.49962 279.394V279.394Z" fill="#CCCCCC"/>
<path opacity="0.2" d="M183.097 50.8263C185.287 54.5705 186.073 58.9719 185.315 63.2428C184.556 67.5137 182.303 71.3752 178.957 74.1363C175.611 76.8973 171.393 78.3776 167.055 78.3122C162.718 78.2469 158.546 76.6401 155.285 73.7795C156.62 76.0657 158.436 78.0346 160.607 79.5496C162.778 81.0646 165.253 82.0895 167.859 82.5535C170.466 83.0175 173.142 82.9094 175.702 82.2368C178.263 81.5641 180.647 80.3429 182.689 78.6577C184.73 76.9726 186.382 74.8637 187.528 72.4772C188.674 70.0907 189.288 67.4836 189.327 64.8365C189.366 62.1893 188.829 59.5653 187.753 57.1462C186.677 54.7271 185.089 52.5707 183.097 50.8263V50.8263Z" fill="#231F20"/>
<path opacity="0.2" d="M205.526 25.9069C220.522 45.297 223.109 73.164 206.492 91.8907C187.926 112.814 133.329 117.381 95.7144 153.518C96.3406 157.287 97.2447 161.004 98.4193 164.64C136.053 124.889 193.868 120.758 213.084 99.1025C231.901 77.8971 226.093 44.9724 205.526 25.9069Z" fill="#231F20"/>
</g>
<defs>
<clipPath id="clip0_129_1255">
<rect width="300" height="279.868" fill="white"/>
</clipPath>
</defs>
</svg>
