<svg width="300" height="233" viewBox="0 0 300 233" fill="none" xmlns="http://www.w3.org/2000/svg">
<g clip-path="url(#clip0_129_1135)">
<path d="M170.821 113.922C177.572 113.922 183.044 108.45 183.044 101.699C183.044 94.9488 177.572 89.4764 170.821 89.4764C164.071 89.4764 158.598 94.9488 158.598 101.699C158.598 108.45 164.071 113.922 170.821 113.922Z" fill="#E6E6E6"/>
<path d="M200.778 117.407L188.004 104.633C188.984 103.11 189.647 101.406 189.956 99.6225C190.264 97.8384 190.211 96.0106 189.801 94.2473C189.39 92.4841 188.629 90.8211 187.564 89.3572C186.499 87.8932 185.151 86.6579 183.599 85.7245C180.678 83.9794 177.208 83.395 173.877 84.0871C170.545 84.7791 167.595 86.6971 165.61 89.4612C163.784 92.0216 162.907 95.1382 163.13 98.2752C163.353 101.412 164.661 104.374 166.831 106.65C169.001 108.927 171.896 110.376 175.018 110.75C178.141 111.123 181.296 110.397 183.941 108.697L196.715 121.47C197.254 122.008 197.984 122.311 198.746 122.31C199.508 122.31 200.238 122.007 200.777 121.469C201.315 120.93 201.618 120.2 201.618 119.438C201.618 118.676 201.316 117.946 200.778 117.407ZM183.464 104.157C181.882 105.739 179.799 106.724 177.572 106.944C175.344 107.163 173.109 106.603 171.248 105.36C169.387 104.116 168.015 102.266 167.365 100.124C166.715 97.9822 166.828 95.6812 167.685 93.6133C168.541 91.5454 170.089 89.8384 172.063 88.7833C174.037 87.7281 176.315 87.3901 178.511 87.8268C180.706 88.2634 182.682 89.4478 184.102 91.178C185.522 92.9082 186.298 95.0773 186.298 97.3156C186.3 98.5863 186.05 99.8448 185.564 101.019C185.078 102.193 184.364 103.259 183.464 104.157Z" fill="#3F3D56"/>
<path d="M293.369 136.248C326.036 172.373 231.342 224.435 154.827 224.435C78.3127 224.435 25.3765 184.096 16.2853 136.248C-5.75777 20.232 204.098 -53.5071 154.827 48.061C83.0104 196.108 267.644 107.798 293.369 136.248Z" fill="#E6E6E6"/>
<path d="M278.713 144.798C311.379 180.923 216.685 232.984 140.171 232.984C63.656 232.984 10.7198 192.646 1.62862 144.798C-20.4144 28.7817 189.441 -44.9574 140.171 56.6107C68.3537 204.658 252.988 116.348 278.713 144.798Z" fill="#3F3D56"/>
<path d="M45.6781 60.1001C22.7565 59.0909 4.98406 54.1465 5.21755 48.8437C5.35753 45.6645 11.8446 43.108 23.0153 41.83C23.0552 41.8251 23.0958 41.8282 23.1346 41.8391C23.1733 41.85 23.2096 41.8685 23.2412 41.8934C23.2728 41.9184 23.2991 41.9493 23.3187 41.9845C23.3383 42.0197 23.3508 42.0584 23.3554 42.0984C23.3599 42.1384 23.3566 42.1789 23.3454 42.2176C23.3343 42.2563 23.3156 42.2924 23.2904 42.3239C23.2652 42.3553 23.2341 42.3815 23.1988 42.4008C23.1635 42.4202 23.1247 42.4324 23.0847 42.4367C12.5619 43.6407 5.94937 46.106 5.82764 48.8705C5.6165 53.6659 23.878 58.5289 45.705 59.49C67.5319 60.451 86.1502 57.2118 86.3613 52.4165C86.4836 49.6403 80.0722 46.5948 69.629 44.4687C69.5896 44.4608 69.5521 44.4452 69.5188 44.4228C69.4854 44.4004 69.4568 44.3717 69.4346 44.3382C69.4124 44.3047 69.397 44.2672 69.3893 44.2278C69.3816 44.1883 69.3818 44.1478 69.3898 44.1084C69.3978 44.069 69.4135 44.0316 69.436 43.9984C69.4585 43.9651 69.4874 43.9365 69.5209 43.9144C69.5545 43.8923 69.592 43.877 69.6315 43.8694C69.6709 43.8619 69.7115 43.8622 69.7509 43.8703C80.8353 46.127 87.112 49.2517 86.9714 52.4433C86.738 57.7461 68.5998 61.1094 45.6781 60.1001Z" fill="#005FFF"/>
<path d="M25.3203 60.9882C27.2378 64.6309 30.0784 67.7061 33.5577 69.9062C37.0369 72.1063 41.033 73.3542 45.146 73.5249C49.259 73.6956 53.3448 72.7832 56.9944 70.879C60.6441 68.9748 63.7296 66.1455 65.9425 62.6743C52.3811 62.857 38.8199 62.2942 25.3203 60.9882Z" fill="#005FFF"/>
<path d="M68.478 56.2513C69.6321 52.7898 69.9646 49.1072 69.4493 45.495C68.934 41.8828 67.585 38.4401 65.5092 35.4394C63.4333 32.4387 60.6875 29.9623 57.489 28.2063C54.2906 26.4503 50.7274 25.4628 47.0813 25.322C43.4353 25.1812 39.8065 25.8909 36.4821 27.3951C33.1578 28.8992 30.2292 31.1565 27.9281 33.9882C25.627 36.8198 24.0166 40.1483 23.2242 43.71C22.4319 47.2717 22.4795 50.9689 23.3631 54.5091C38.2628 57.0384 53.4277 57.624 68.478 56.2513Z" fill="#005FFF"/>
<path d="M51.5529 40.4893C53.0706 40.4893 54.301 39.2589 54.301 37.7412C54.301 36.2234 53.0706 34.993 51.5529 34.993C50.0351 34.993 48.8047 36.2234 48.8047 37.7412C48.8047 39.2589 50.0351 40.4893 51.5529 40.4893Z" fill="white"/>
<path d="M37.4092 51.1736C39.9388 51.1736 41.9894 49.1229 41.9894 46.5934C41.9894 44.0638 39.9388 42.0131 37.4092 42.0131C34.8796 42.0131 32.829 44.0638 32.829 46.5934C32.829 49.1229 34.8796 51.1736 37.4092 51.1736Z" fill="white"/>
<path d="M106.537 46.687C108.224 46.687 109.591 45.3199 109.591 43.6336C109.591 41.9472 108.224 40.5802 106.537 40.5802C104.851 40.5802 103.484 41.9472 103.484 43.6336C103.484 45.3199 104.851 46.687 106.537 46.687Z" fill="#005FFF"/>
<path d="M37.5287 140.123C38.5405 140.123 39.3608 139.303 39.3608 138.291C39.3608 137.279 38.5405 136.459 37.5287 136.459C36.5168 136.459 35.6966 137.279 35.6966 138.291C35.6966 139.303 36.5168 140.123 37.5287 140.123Z" fill="#E6E6E6"/>
<path d="M165.775 203.025C166.786 203.025 167.607 202.205 167.607 201.193C167.607 200.181 166.786 199.361 165.775 199.361C164.763 199.361 163.943 200.181 163.943 201.193C163.943 202.205 164.763 203.025 165.775 203.025Z" fill="#E6E6E6"/>
<path d="M46.3837 104.703C46.8897 104.703 47.2998 104.293 47.2998 103.787C47.2998 103.281 46.8897 102.871 46.3837 102.871C45.8778 102.871 45.4677 103.281 45.4677 103.787C45.4677 104.293 45.8778 104.703 46.3837 104.703Z" fill="#E6E6E6"/>
<path d="M122.11 173.101C122.616 173.101 123.026 172.691 123.026 172.185C123.026 171.679 122.616 171.269 122.11 171.269C121.604 171.269 121.194 171.679 121.194 172.185C121.194 172.691 121.604 173.101 122.11 173.101Z" fill="#E6E6E6"/>
<path d="M259.822 164.246C260.328 164.246 260.738 163.836 260.738 163.33C260.738 162.824 260.328 162.414 259.822 162.414C259.316 162.414 258.906 162.824 258.906 163.33C258.906 163.836 259.316 164.246 259.822 164.246Z" fill="#E6E6E6"/>
<path d="M216.768 191.422C217.274 191.422 217.684 191.012 217.684 190.506C217.684 190 217.274 189.59 216.768 189.59C216.262 189.59 215.852 190 215.852 190.506C215.852 191.012 216.262 191.422 216.768 191.422Z" fill="#E6E6E6"/>
<path d="M171.882 158.444C172.387 158.444 172.798 158.034 172.798 157.528C172.798 157.022 172.387 156.612 171.882 156.612C171.376 156.612 170.965 157.022 170.965 157.528C170.965 158.034 171.376 158.444 171.882 158.444Z" fill="#E6E6E6"/>
<path d="M113.866 68.0614C114.371 68.0614 114.782 67.6513 114.782 67.1453C114.782 66.6394 114.371 66.2293 113.866 66.2293C113.36 66.2293 112.949 66.6394 112.949 67.1453C112.949 67.6513 113.36 68.0614 113.866 68.0614Z" fill="#E6E6E6"/>
<path d="M121.194 22.87C121.7 22.87 122.11 22.4598 122.11 21.9539C122.11 21.448 121.7 21.0378 121.194 21.0378C120.688 21.0378 120.278 21.448 120.278 21.9539C120.278 22.4598 120.688 22.87 121.194 22.87Z" fill="#E6E6E6"/>
<path d="M116.919 213.101C117.425 213.101 117.835 212.691 117.835 212.185C117.835 211.679 117.425 211.269 116.919 211.269C116.413 211.269 116.003 211.679 116.003 212.185C116.003 212.691 116.413 213.101 116.919 213.101Z" fill="#E6E6E6"/>
<path d="M71.7276 193.865C72.2335 193.865 72.6437 193.454 72.6437 192.948C72.6437 192.443 72.2335 192.032 71.7276 192.032C71.2217 192.032 70.8115 192.443 70.8115 192.948C70.8115 193.454 71.2217 193.865 71.7276 193.865Z" fill="#E6E6E6"/>
<path d="M214.936 160.887C215.441 160.887 215.852 160.477 215.852 159.971C215.852 159.465 215.441 159.055 214.936 159.055C214.43 159.055 214.019 159.465 214.019 159.971C214.019 160.477 214.43 160.887 214.936 160.887Z" fill="#E6E6E6"/>
<path d="M45.3055 71.3898C46.8233 71.3898 48.0537 70.1595 48.0537 68.6417C48.0537 67.124 46.8233 65.8936 45.3055 65.8936C43.7878 65.8936 42.5574 67.124 42.5574 68.6417C42.5574 70.1595 43.7878 71.3898 45.3055 71.3898Z" fill="white"/>
<path d="M107.453 110.81C107.453 119.018 94.7632 138.144 91.0547 143.558C90.9428 143.721 90.7927 143.855 90.6173 143.948C90.442 144.04 90.2467 144.089 90.0485 144.089C89.8502 144.089 89.6549 144.04 89.4796 143.948C89.3042 143.855 89.1541 143.721 89.0422 143.558C85.3337 138.144 72.6436 119.018 72.6436 110.81C72.6436 108.524 73.0938 106.261 73.9685 104.15C74.8432 102.038 76.1252 100.119 77.7414 98.503C79.3576 96.8868 81.2763 95.6048 83.3879 94.7301C85.4996 93.8554 87.7628 93.4052 90.0485 93.4052C92.3341 93.4052 94.5973 93.8554 96.709 94.7301C98.8206 95.6048 100.739 96.8868 102.356 98.503C103.972 100.119 105.254 102.038 106.128 104.15C107.003 106.261 107.453 108.524 107.453 110.81Z" fill="white"/>
<path d="M90.0484 118.444C94.939 118.444 98.9035 114.479 98.9035 109.589C98.9035 104.698 94.939 100.734 90.0484 100.734C85.1579 100.734 81.1934 104.698 81.1934 109.589C81.1934 114.479 85.1579 118.444 90.0484 118.444Z" fill="#005FFF"/>
<path d="M89.8958 153.559C95.5452 153.559 100.125 152.67 100.125 151.574C100.125 150.478 95.5452 149.589 89.8958 149.589C84.2464 149.589 79.6666 150.478 79.6666 151.574C79.6666 152.67 84.2464 153.559 89.8958 153.559Z" fill="white"/>
<path d="M249.424 97.0759C249.347 97.2261 249.281 97.3822 249.228 97.5426L234.638 101.597L232.009 99.0236L227.607 102.484L231.819 107.492C232.159 107.896 232.621 108.179 233.136 108.299C233.651 108.418 234.191 108.367 234.675 108.154L250.436 101.197C250.97 101.568 251.605 101.767 252.256 101.769C252.907 101.77 253.543 101.573 254.079 101.205C254.616 100.836 255.027 100.312 255.259 99.7042C255.49 99.0959 255.531 98.4315 255.376 97.7994C255.221 97.1673 254.877 96.5974 254.39 96.1655C253.903 95.7336 253.296 95.4602 252.65 95.3817C252.004 95.3031 251.349 95.4232 250.773 95.7258C250.197 96.0285 249.726 96.4994 249.424 97.0759H249.424Z" fill="#FFB8B8"/>
<path d="M234.124 101.834L228.647 106.097C228.492 106.218 228.311 106.304 228.119 106.35C227.927 106.395 227.727 106.399 227.534 106.36C227.34 106.321 227.157 106.241 226.997 106.125C226.837 106.009 226.704 105.86 226.607 105.689L223.204 99.6648C222.587 98.8641 222.314 97.8517 222.443 96.8496C222.572 95.8475 223.094 94.9376 223.893 94.3193C224.692 93.7011 225.704 93.425 226.706 93.5516C227.708 93.6782 228.62 94.1972 229.24 94.9948L234.229 99.7563C234.372 99.8927 234.483 100.058 234.556 100.242C234.629 100.425 234.662 100.622 234.652 100.819C234.642 101.017 234.59 101.209 234.499 101.384C234.407 101.56 234.28 101.713 234.124 101.834V101.834Z" fill="#005FFF"/>
<path d="M250.823 95.0598L256.377 97.5584C256.609 97.663 256.791 97.8558 256.881 98.0942C256.972 98.3326 256.964 98.5973 256.859 98.8298L256.202 100.291C256.279 100.326 256.339 100.391 256.369 100.47C256.4 100.549 256.397 100.638 256.362 100.715L256.099 101.3C256.064 101.377 256 101.437 255.921 101.468C255.841 101.498 255.753 101.495 255.676 101.461L255.413 102.045C255.49 102.08 255.55 102.144 255.58 102.224C255.611 102.303 255.608 102.391 255.573 102.469L255.31 103.054C255.275 103.131 255.211 103.191 255.132 103.221C255.052 103.251 254.964 103.249 254.887 103.214L251.336 111.106C251.231 111.339 251.039 111.52 250.8 111.611C250.562 111.701 250.297 111.693 250.064 111.589L244.511 109.09C244.278 108.985 244.097 108.793 244.006 108.554C243.916 108.316 243.924 108.051 244.028 107.819L249.552 95.5422C249.656 95.3096 249.849 95.1281 250.088 95.0377C250.326 94.9472 250.591 94.9551 250.823 95.0598Z" fill="#3F3D56"/>
<path d="M245.519 108.313L249.974 110.319C250.198 110.419 250.451 110.426 250.68 110.34C250.909 110.253 251.094 110.08 251.196 109.857L253.253 105.28L253.968 103.694L255.83 99.5527C255.93 99.3299 255.937 99.0768 255.851 98.8486C255.764 98.6204 255.591 98.4356 255.369 98.3347L253.968 97.7033L250.91 96.3283C250.687 96.2286 250.434 96.2216 250.205 96.3087C249.977 96.3958 249.792 96.57 249.692 96.793L247.891 100.796L245.84 105.354L245.058 107.095C244.958 107.317 244.95 107.571 245.037 107.799C245.123 108.027 245.297 108.212 245.519 108.313Z" fill="#F2F2F2"/>
<path d="M236.21 165.023L239.953 165.023L241.734 150.583L236.209 150.584L236.21 165.023Z" fill="#FFB8B8"/>
<path d="M235.255 163.801L242.627 163.8H242.628C243.245 163.8 243.855 163.922 244.425 164.158C244.996 164.394 245.513 164.74 245.95 165.176C246.386 165.613 246.732 166.131 246.968 166.701C247.204 167.271 247.326 167.882 247.326 168.499V168.651L235.255 168.652L235.255 163.801Z" fill="#2F2E41"/>
<path d="M245.981 164.107L249.724 164.107L251.506 149.667L245.98 149.668L245.981 164.107Z" fill="#FFB8B8"/>
<path d="M245.026 162.885L252.398 162.884H252.399C253.016 162.884 253.627 163.006 254.197 163.242C254.767 163.478 255.285 163.824 255.721 164.26C256.157 164.697 256.503 165.215 256.739 165.785C256.975 166.355 257.097 166.966 257.097 167.582V167.735L245.026 167.736L245.026 162.885Z" fill="#2F2E41"/>
<path d="M219.418 131.14C220.216 133.504 221.729 135.562 223.747 137.029C225.766 138.496 228.19 139.298 230.685 139.326L230.875 139.33C232.807 139.384 235.076 138.762 237.302 137.867C241.699 136.099 245.922 133.268 247.043 132.49L245.144 150.746L244.374 158.148C244.355 158.34 244.376 158.533 244.435 158.716C244.495 158.899 244.593 159.067 244.722 159.21C244.851 159.353 245.008 159.467 245.184 159.546C245.359 159.624 245.55 159.665 245.742 159.666H250.484C250.788 159.666 251.084 159.565 251.325 159.38C251.565 159.194 251.738 158.934 251.815 158.64L259.645 128.823C259.879 127.93 259.898 126.994 259.7 126.093C259.501 125.192 259.091 124.351 258.503 123.64C257.914 122.929 257.165 122.368 256.317 122.004C255.469 121.64 254.547 121.483 253.626 121.546L237.363 122.661L238.499 118.117L223.983 117.152L223.94 117.183C223.592 117.436 223.253 117.702 222.93 117.98C222.12 118.664 221.403 119.45 220.795 120.319C219.708 121.877 219.015 123.675 218.775 125.56C218.535 127.445 218.756 129.359 219.418 131.14Z" fill="#2F2E41"/>
<path d="M219.418 131.14C220.216 133.504 221.729 135.562 223.747 137.029C225.766 138.496 228.19 139.298 230.685 139.326C233.071 138.119 235.374 136.753 237.577 135.238L237.302 137.867L234.908 160.896C234.889 161.088 234.91 161.281 234.97 161.464C235.03 161.647 235.127 161.815 235.256 161.958C235.385 162.101 235.542 162.216 235.718 162.294C235.894 162.373 236.084 162.413 236.276 162.414H241.018C241.322 162.414 241.618 162.313 241.859 162.128C242.1 161.942 242.272 161.682 242.35 161.388L245.144 150.746L250.179 131.571C250.414 130.678 250.432 129.743 250.234 128.841C250.035 127.94 249.625 127.099 249.037 126.388C248.449 125.677 247.699 125.116 246.852 124.752C246.004 124.388 245.081 124.231 244.16 124.294L227.898 125.409L229.033 120.865L220.795 120.319C219.708 121.877 219.015 123.675 218.775 125.56C218.535 127.445 218.756 129.359 219.418 131.14Z" fill="#2F2E41"/>
<path d="M222.909 119.033L222.8 119.02L220.267 106.566C220.245 106.458 218.174 95.7162 224.522 90.1005L224.633 89.332C224.661 89.1353 224.732 88.947 224.84 88.7803C224.948 88.6135 225.091 88.4722 225.259 88.366C225.427 88.2598 225.616 88.1914 225.813 88.1653C226.01 88.1392 226.21 88.1562 226.4 88.2151L232.38 90.07C232.719 90.1743 233.004 90.4055 233.175 90.7152C233.347 91.025 233.393 91.3892 233.302 91.7316L232.721 93.9429C233.527 94.8895 243.015 106.313 239.71 115.114L238.23 120.901L222.909 119.033Z" fill="#005FFF"/>
<path d="M247.74 109.313C247.597 109.403 247.461 109.505 247.334 109.616L232.709 105.69L231.753 102.137L226.203 102.88L227.284 109.333C227.372 109.854 227.626 110.333 228.008 110.698C228.391 111.062 228.882 111.293 229.407 111.355L246.516 113.376C246.788 113.968 247.233 114.462 247.793 114.794C248.353 115.127 249 115.28 249.65 115.235C250.299 115.19 250.919 114.949 251.428 114.543C251.937 114.137 252.31 113.586 252.498 112.962C252.685 112.339 252.679 111.673 252.479 111.054C252.279 110.434 251.896 109.891 251.379 109.494C250.863 109.098 250.238 108.869 249.588 108.836C248.938 108.804 248.293 108.971 247.74 109.313H247.74Z" fill="#FFB8B8"/>
<path d="M232.145 105.633L225.262 106.52C225.066 106.545 224.867 106.528 224.679 106.469C224.49 106.41 224.317 106.312 224.17 106.18C224.023 106.048 223.906 105.886 223.827 105.705C223.748 105.524 223.709 105.328 223.713 105.131L223.844 98.2133C223.721 97.2105 224 96.1998 224.621 95.4026C225.241 94.6055 226.153 94.087 227.155 93.9609C228.158 93.8347 229.169 94.1112 229.968 94.7298C230.767 95.3483 231.288 96.2584 231.417 97.2604L233.292 103.897C233.346 104.087 233.358 104.286 233.327 104.481C233.297 104.677 233.225 104.863 233.116 105.028C233.007 105.192 232.864 105.332 232.697 105.436C232.529 105.541 232.341 105.608 232.145 105.633Z" fill="#005FFF"/>
<path d="M230.208 86.5247C234.35 86.5247 237.707 83.167 237.707 79.0251C237.707 74.8831 234.35 71.5254 230.208 71.5254C226.066 71.5254 222.708 74.8831 222.708 79.0251C222.708 83.167 226.066 86.5247 230.208 86.5247Z" fill="#FFB8B8"/>
<path d="M229.813 79.6514L228.874 77.9416C227.096 85.1881 230.237 91.1854 230.237 91.1854L218.044 85.5057L218.16 83.4904L216.954 84.8596L215.22 83.9042L214.991 82.5972L213.682 82.9213L218.459 74.2533C223.095 66.0049 229.835 69.1541 229.835 69.1541C240.557 68.6443 239.248 79.223 239.248 79.223L229.813 79.6514Z" fill="#2F2E41"/>
<path d="M144.442 135.54C146.171 134.431 144.068 128.066 139.745 121.322C135.422 114.579 130.515 110.01 128.786 111.119C127.057 112.227 129.16 118.593 133.483 125.336C137.806 132.08 142.712 136.648 144.442 135.54Z" fill="#3F3D56"/>
</g>
<defs>
<clipPath id="clip0_129_1135">
<rect width="300" height="232.984" fill="white"/>
</clipPath>
</defs>
</svg>
