<svg width="411" height="289" viewBox="0 0 411 289" fill="none" xmlns="http://www.w3.org/2000/svg">
<g clip-path="url(#clip0_163_1175)">
<path d="M54.4954 201.056C64.5289 193.652 75.051 186.936 85.9895 180.953C116.583 164.054 154.205 149.604 196.977 138.41C199.916 137.639 202.88 136.884 205.868 136.147C212.214 134.575 218.666 133.078 225.223 131.656C226.843 131.306 228.467 130.958 230.095 130.611C239.22 128.691 248.527 126.918 258.016 125.292C258.207 125.257 258.397 125.227 258.592 125.196C260.82 124.811 263.057 124.438 265.305 124.078C310.216 116.773 358.887 112.754 409.735 112.693C410.155 112.689 410.58 112.689 411 112.689V288.702H0C0 256.79 19.8267 226.864 54.4954 201.056Z" fill="#F1F1F1"/>
<path d="M136.158 221.132C153.672 208.096 176.098 196.421 202.356 186.576C205.27 185.479 208.233 184.408 211.243 183.363C211.663 183.216 212.087 183.068 212.512 182.921C216.345 181.603 220.251 180.32 224.231 179.071C230.957 176.967 237.873 174.979 244.98 173.106C250.068 171.76 255.244 170.479 260.511 169.26C262.203 168.864 263.902 168.48 265.608 168.107C269.487 167.243 273.412 166.416 277.384 165.627C317.986 157.529 363.261 153.007 411 153.007V288.702H94.1445C94.1445 264.1 109.433 241.027 136.158 221.132Z" fill="#005FFF"/>
<path d="M127.852 281.662L128.636 282.035C131.297 276.519 134.547 271.308 138.328 266.493L137.644 265.959C133.825 270.826 130.542 276.09 127.852 281.662ZM150.16 252.347L150.754 252.98C155.003 249.024 159.471 245.31 164.136 241.855C164.396 241.66 164.66 241.465 164.924 241.27L164.409 240.572C164.145 240.767 163.88 240.962 163.616 241.161C158.926 244.636 154.434 248.37 150.16 252.347ZM179.796 230.336L180.242 231.078C185.292 228.025 190.71 225.025 196.34 222.16L195.946 221.384C190.299 224.262 184.863 227.276 179.796 230.336ZM212.655 213.524L212.997 214.317C218.467 211.937 224.214 209.614 230.069 207.415L229.766 206.605C223.893 208.807 218.138 211.135 212.655 213.524ZM247.189 200.514L247.453 201.337C248.986 200.839 250.524 200.349 252.079 199.859C256.314 198.537 260.688 197.236 265.084 196.005L264.85 195.168C260.446 196.404 256.063 197.704 251.819 199.035C250.265 199.522 248.722 200.015 247.189 200.514H247.189ZM288.129 189.216C286.314 189.632 284.487 190.066 282.702 190.499L282.906 191.34C284.69 190.911 286.513 190.477 288.328 190.057C290.047 189.658 291.758 189.268 293.417 188.908C295.89 188.357 298.402 187.816 300.879 187.304L300.706 186.454C298.22 186.97 295.708 187.508 293.231 188.058C291.572 188.423 289.853 188.813 288.129 189.216L288.129 189.216ZM318.826 182.995L318.978 183.849C324.941 182.804 331.065 181.824 337.172 180.94L337.046 180.081C330.931 180.97 324.803 181.95 318.826 182.995ZM355.344 177.693L355.444 178.555C361.481 177.853 367.648 177.22 373.776 176.669L373.698 175.807C367.566 176.357 361.39 176.99 355.344 177.693H355.344ZM392.1 174.406L392.152 175.274C398.233 174.888 404.426 174.576 410.558 174.346L410.528 173.479C404.382 173.713 398.185 174.025 392.1 174.406H392.1Z" fill="white"/>
<path d="M218.7 241.426C256.968 212.939 328.757 193.759 411 193.759V288.702H189.302C189.302 271.491 200 255.347 218.7 241.426Z" fill="#F1F1F1"/>
<path opacity="0.2" d="M54.4954 201.056L136.158 221.132L218.7 241.426L411 288.702H0C0 256.79 19.8267 226.864 54.4954 201.056Z" fill="black"/>
</g>
<defs>
<clipPath id="clip0_163_1175">
<rect width="411" height="288.702" fill="white"/>
</clipPath>
</defs>
</svg>
