<svg width="70" height="67" viewBox="0 0 70 67" fill="none" xmlns="http://www.w3.org/2000/svg">
<path d="M56.9656 30.2299H56.1531C56.3828 28.1075 55.1521 26.2077 52.9031 26.1674H48.4214L54.29 20.2998C58.2597 17.4993 57.16 14.2841 53.7124 11.6829C49.2506 7.07245 37.9337 24.5932 34.1944 26.6078C31.0573 26.4487 12.2573 23.5241 13.9031 30.2299C7.57583 28.4583 11.8206 49.8152 10.6516 52.1675C10.0369 57.0048 28.9498 53.6734 31.0679 54.6049C31.2511 55.301 31.6589 55.9172 32.228 56.3579C32.7971 56.7986 33.4958 57.0392 34.2155 57.0424C36.1467 57.2524 38.5202 56.7679 38.9874 54.6049C41.1999 53.635 59.9489 57.0257 59.4032 52.1686C58.4346 50.0331 61.8505 29.5756 56.9656 30.2299ZM56.1531 31.8549C56.8151 31.4785 57.251 32.0077 57.5327 33.0947C57.1177 32.7118 56.4839 33.0984 56.1222 33.3928C56.1287 32.8918 56.138 32.3819 56.1531 31.8549ZM56.2323 34.7195C56.6158 34.2281 57.4069 34.098 57.6289 33.4978C57.7327 34.0466 57.8068 34.6006 57.8509 35.1574C57.2271 35.6373 56.6514 36.1767 56.1319 36.7679C56.1206 36.1425 56.115 35.4883 56.1144 34.813C56.1558 34.7846 56.1952 34.7534 56.2323 34.7195ZM52.9031 27.7924C53.3339 27.7929 53.7469 27.9642 54.0516 28.2689C54.3562 28.5735 54.5276 28.9866 54.5281 29.4174C53.9786 58.381 59.277 45.8884 35.8406 50.9816V36.3954C39.2741 36.7558 44.5198 29.6972 46.7967 27.7921L52.9031 27.7924ZM36.9518 52.1896C36.569 52.6229 36.2332 53.0954 35.95 53.5994C36.1605 53.0529 36.5049 52.5682 36.9518 52.1896ZM39.3018 32.989C38.9064 32.2618 38.4322 31.5804 37.8879 30.9568L50.8431 18.0017L51.4971 18.6557C51.877 19.0113 51.8774 19.6856 52.3953 19.8958C49.0366 23.2545 42.5526 29.7383 39.3018 32.989ZM53.7799 14.233C53.8097 14.1687 53.837 14.1054 53.8651 14.0421C55.2279 15.468 56.0703 17.1424 53.7152 18.576L53.1795 18.0403C53.8458 17.3804 54.3932 16.6105 54.7977 15.7645C54.8182 15.6826 54.8145 15.5965 54.7873 15.5166C54.76 15.4367 54.7103 15.3664 54.6441 15.314C54.1221 14.994 53.6954 15.6808 53.4365 16.051C53.1232 16.4934 52.8364 16.9526 52.5549 17.4157L52.105 16.9659C52.7175 16.0892 53.2768 15.1766 53.7799 14.233ZM51.8758 13.3376C51.9975 13.0815 52.1192 12.8254 52.2409 12.5693C52.473 12.7444 52.6956 12.9317 52.9078 13.1304C52.3408 13.9917 51.8729 14.9142 51.5129 15.8805C51.335 15.6312 51.1343 15.399 50.9137 15.1866C51.2953 14.604 51.6176 13.9845 51.8758 13.3376ZM51.4702 12.3522C51.1426 13.1755 50.8082 13.9979 50.4838 14.8218C50.0413 14.4348 49.4361 14.35 49.1195 13.9803C49.7058 13.3225 50.578 12.3938 51.4702 12.3522ZM34.8606 28.2399L47.9705 15.1293L49.6941 16.8528L36.7392 29.8078C36.1156 29.2633 35.4339 28.789 34.7066 28.3935L34.8606 28.2399ZM15.5281 29.4174C15.2251 26.0953 31.3754 28.4122 32.9619 27.8404C31.8395 28.3305 31.4523 31.2871 31.1837 32.3543C30.349 36.0775 28.8355 38.6611 34.2155 36.7711V50.9816C10.7146 45.9191 16.0966 58.2955 15.5281 29.4174ZM33.8442 35.1851C33.8684 35.1572 33.8945 35.131 33.9165 35.1013C33.9295 35.1208 33.9455 35.139 33.9583 35.1585L33.8442 35.1851ZM13.9031 31.8549C13.9144 32.2376 13.9197 32.6026 13.9263 32.9714C13.2958 33.1084 12.8543 33.7113 12.3882 34.1267C12.4333 33.6374 12.3958 33.1439 12.2771 32.667C12.2731 31.8007 13.2752 31.812 13.9031 31.8549ZM13.9409 34.1347C13.9454 34.8381 13.9435 35.5156 13.9352 36.1671C13.3071 36.6592 12.7567 37.2432 12.3027 37.8993C12.3296 37.046 12.3532 36.2553 12.3689 35.5586C12.9259 35.1199 13.3831 34.5737 13.9409 34.1347ZM12.2745 38.7863C12.3264 38.7951 12.3797 38.7912 12.4298 38.775C12.48 38.7588 12.5254 38.7307 12.5623 38.6932C12.9851 38.2209 13.4572 37.7984 13.9146 37.3609C13.8927 38.3483 13.8626 39.2727 13.8304 40.1362C13.1209 40.0479 12.578 41.0534 12.1906 41.5414C12.2169 40.5962 12.2463 39.668 12.2745 38.7863ZM12.1599 42.7344C12.4132 42.7022 12.5282 42.4097 12.6791 42.2361C13.0109 41.7896 13.4288 41.4055 13.7986 40.9885C13.7602 41.9903 13.7265 42.9071 13.7118 43.7409C13.0593 44.373 12.518 45.1106 12.1107 45.9227C12.1156 44.8904 12.1344 43.8125 12.1599 42.7344ZM16.3945 52.9799H13.0906C12.6809 53.1064 12.4315 52.314 12.286 50.9882C12.7379 50.8257 12.9765 50.2861 13.3328 49.9723C13.6734 49.6619 13.9314 49.2716 14.0836 48.8366C14.1041 48.7582 14.1011 48.6756 14.0748 48.599C14.0486 48.5224 14.0004 48.4552 13.9362 48.4059C13.872 48.3565 13.7947 48.3272 13.7139 48.3216C13.6332 48.316 13.5525 48.3343 13.4821 48.3742C12.9563 48.7636 12.5168 49.2575 12.1913 49.8251C12.1334 48.8404 12.1102 47.6888 12.11 46.4509C12.3743 46.7738 12.7611 46.5424 12.9211 46.2425C13.1633 45.9312 13.43 45.6399 13.7186 45.3712C13.8215 48.8451 14.656 50.5705 18.0163 51.258C17.5076 51.861 16.9135 52.3886 16.3945 52.9799ZM21.6177 51.747C21.1836 52.1322 20.7738 52.5439 20.3907 52.9798C19.404 52.9798 18.4504 52.9799 17.5748 52.9799C18.228 52.553 18.8233 52.0434 19.3457 51.4637C20.0628 51.5442 20.874 51.5934 21.7785 51.6171C21.7252 51.6607 21.6691 51.7008 21.6177 51.747ZM21.8918 52.9798C22.5338 52.5871 23.1383 52.1362 23.6977 51.6328C24.4965 51.6257 25.3668 51.6035 26.2954 51.5706C25.6043 51.9936 24.9436 52.4645 24.3182 52.9797C23.5198 52.9798 22.7039 52.9797 21.8918 52.9798ZM31.7787 52.9791C31.7785 52.9792 31.3044 52.9793 30.5113 52.9794C30.9587 52.7338 31.3476 52.3943 31.6515 51.9842C31.6879 51.9187 31.7044 51.8439 31.6988 51.7691C31.6932 51.6943 31.6659 51.6227 31.6202 51.5632C31.5745 51.5038 31.5123 51.459 31.4415 51.4344C31.3706 51.4098 31.2941 51.4064 31.2214 51.4248C30.4615 51.8281 29.7729 52.3534 29.1831 52.9795L25.6347 52.9797C26.3688 52.607 27.0347 52.1131 27.6045 51.5189C28.6225 51.4742 29.699 51.4199 30.8686 51.3536C31.8546 51.0314 32.5495 51.6122 33.1247 52.3563C32.8211 52.6883 32.4947 53.005 32.207 53.3486C32.0773 53.211 31.9338 53.0872 31.7787 52.9791ZM34.9305 55.5039C33.2187 55.5685 33.1326 54.8092 32.6657 53.9736C33.0192 53.7172 33.3566 53.4394 33.6761 53.1417C34.308 54.0895 34.8487 54.8858 35.6117 54.1915C35.3784 54.6254 35.1533 55.0641 34.9305 55.5039ZM32.9161 32.079L33.4848 29.6146C35.5069 30.5604 37.1371 32.1798 38.0964 34.1956L35.6131 34.7735C35.0027 33.6266 34.0635 32.6883 32.9161 32.079ZM38.51 52.7522L38.368 52.9481C38.3186 52.9572 38.2869 52.9678 38.2785 52.9805C36.972 53.205 37.6546 55.6124 35.8404 55.4172C35.7668 55.4282 35.7071 55.4324 35.6375 55.4415C35.9824 55.0261 38.8575 51.8218 37.207 52.0067C37.912 51.4983 38.7828 51.2745 39.6456 51.38C39.2175 51.794 38.8366 52.2543 38.51 52.7522ZM41.4472 52.6091C41.3633 52.6961 41.3113 52.8089 41.2997 52.9293C40.4676 52.9121 39.7565 52.9017 39.2382 52.9056C39.571 52.5276 39.855 52.1095 40.0838 51.6609C40.0984 51.6144 40.0987 51.5647 40.0846 51.518C40.0706 51.4714 40.0427 51.4302 40.0048 51.3996C40.8911 51.4487 41.7356 51.4917 42.5298 51.5268C42.1547 51.8711 41.8048 52.2477 41.4472 52.6091ZM45.6952 52.8937C45.6589 52.9384 45.6247 52.9848 45.5888 53.0298C44.6376 53.0086 43.7229 52.9859 42.8777 52.9654C43.5051 52.5888 44.0804 52.1314 44.5888 51.6051C45.456 51.6304 46.246 51.6401 46.9924 51.6392C46.5287 52.0238 46.0951 52.4431 45.6952 52.8937ZM48.8319 53.0861C48.1016 53.0779 47.3663 53.0662 46.6405 53.0519C47.2264 52.6211 47.7758 52.1427 48.2831 51.6216C48.9425 51.6038 49.5547 51.5726 50.1128 51.5248C49.6501 52.0149 49.2221 52.5366 48.8319 53.0861ZM53.8489 53.0477C55.2325 51.8136 56.5137 50.4693 57.6799 49.0279C57.6206 50.7901 57.6188 52.0078 57.7781 52.1674C58.1002 52.707 56.3816 52.9531 53.8489 53.0477ZM57.726 47.7968C57.4652 47.7128 57.1555 47.9543 56.9239 48.069C55.3253 49.5949 53.8797 51.2735 52.6077 53.0809C51.865 53.0945 51.0807 53.0994 50.271 53.097C51.0027 52.3959 51.7962 51.7549 52.57 51.1367C55.0128 50.4956 55.9353 49.1742 56.2304 46.8368C56.7271 46.2508 57.2629 45.6992 57.8342 45.1857C57.7967 46.1071 57.7586 46.9878 57.726 47.7968ZM57.8852 43.8719C57.1076 44.0927 56.6974 44.9243 56.3331 45.5861C56.3652 44.8053 56.3582 43.9353 56.331 42.9636C56.627 42.7273 57.7023 41.4279 57.9653 41.1802C57.9461 42.0789 57.9177 42.985 57.8852 43.8719ZM56.9587 40.8992C56.7369 41.1994 56.5149 41.4996 56.293 41.7998C56.2518 40.6701 56.1987 39.4209 56.1608 38.042C56.7865 37.5695 57.3808 37.0569 57.9399 36.5072C57.9833 37.4781 57.9951 38.5413 57.9871 39.6428C57.5951 40.0187 57.2498 40.4406 56.9587 40.8992Z" fill="#252020"/>
<path d="M20.1559 32.3545C21.8743 32.3423 23.6054 31.9258 25.6227 32.0804C26.2596 32.1453 26.902 32.134 27.5362 32.0466C27.6517 32.012 27.7548 31.9447 27.833 31.8529C27.9111 31.761 27.961 31.6485 27.9767 31.5289C27.9923 31.4093 27.973 31.2877 27.9211 31.1789C27.8691 31.07 27.7868 30.9785 27.6841 30.9154C27.0877 30.203 17.9199 30.7816 20.1559 32.3545ZM19.6563 36.4289C21.8571 36.2403 24.0702 36.2449 26.2702 36.4427C26.9322 36.507 27.9678 36.8205 28.5462 36.3911C28.6796 36.3105 28.7764 36.181 28.8159 36.0302C28.8554 35.8794 28.8347 35.7192 28.758 35.5834C28.2903 34.93 27.335 34.9261 26.6011 34.8719C24.2246 34.6788 21.8328 34.9147 19.5399 35.5685C19.089 35.7144 19.1417 36.4534 19.6563 36.4289ZM19.8555 40.7214C21.9215 40.5775 23.9973 40.681 26.0387 41.0297C26.7447 41.1929 27.4793 41.1872 28.1827 41.0132C28.2519 40.9709 28.3107 40.9137 28.3548 40.8457C28.3989 40.7777 28.4272 40.7007 28.4375 40.6203C28.4479 40.5399 28.44 40.4582 28.4146 40.3812C28.3892 40.3043 28.3468 40.234 28.2906 40.1756C27.6724 39.7921 26.9689 39.5674 26.2428 39.5216C24.0864 39.2955 21.7947 39.0299 19.744 39.8985C19.3409 40.0589 19.3433 40.7514 19.8555 40.7214ZM19.7467 45.4081C22.0395 45.6013 24.3679 45.3211 26.6533 45.7422C27.4516 45.9447 28.2817 45.9888 29.0969 45.8721C29.2069 45.8404 29.3067 45.7807 29.3868 45.6989C29.4668 45.6171 29.5242 45.516 29.5534 45.4053C29.5827 45.2947 29.5827 45.1783 29.5535 45.0677C29.5243 44.957 29.4669 44.8558 29.3869 44.774C27.9956 43.796 26.1181 43.9623 24.4906 43.8638C23.8187 43.8078 18.0138 44.1029 19.7467 45.4081ZM15.3104 50.4322C14.5243 50.9462 13.8189 51.574 13.2172 52.2952C13.1576 52.3564 13.1241 52.4386 13.1241 52.5241C13.1241 52.6096 13.1576 52.6918 13.2172 52.753C13.2792 52.8114 13.3611 52.8439 13.4462 52.8439C13.5313 52.8439 13.6131 52.8114 13.6751 52.753C14.4313 52.2439 15.1103 51.6285 15.691 50.9257C15.7423 50.871 15.7725 50.7998 15.7761 50.7249C15.7797 50.65 15.7566 50.5763 15.7108 50.5169C15.665 50.4576 15.5995 50.4164 15.5262 50.4009C15.4528 50.3854 15.3763 50.3965 15.3104 50.4322V50.4322Z" fill="#252020"/>
</svg>
