<svg width="70" height="67" viewBox="0 0 70 67" fill="none" xmlns="http://www.w3.org/2000/svg">
<g clip-path="url(#clip0_51309_1227)">
<path d="M44.321 57.6397L44.3994 57.6789L44.5821 57.5353L44.321 57.6397Z" fill="#252020"/>
<path d="M45.5091 57.2742V57.1959L44.8302 57.6267C45.1044 57.8094 45.2871 57.1436 45.5091 57.2742ZM45.7049 57.2742C45.7895 57.2927 45.878 57.2806 45.9545 57.2399C46.031 57.1993 46.0906 57.1327 46.1226 57.0522C46.0574 57.2089 45.6265 57.0914 45.7049 57.2742ZM54.9607 38.7233C54.9584 38.7493 54.9584 38.7755 54.9607 38.8016C54.9709 38.7765 54.9709 38.7484 54.9607 38.7233V38.7233Z" fill="#252020"/>
<path d="M54.3472 32.8616H54.2036C54.3119 34.0201 54.3468 35.1843 54.3081 36.3472V36.2689C54.3081 39.2062 54.4908 41.9216 54.6083 44.8329L54.53 44.7284C54.6045 44.8701 54.649 45.0257 54.6605 45.1854C54.6605 45.1854 54.5953 45.1854 54.5822 45.094C54.3342 45.7075 54.7519 46.9086 54.5822 47.2872C54.5822 47.4569 54.6997 47.5483 54.778 47.4569C54.6586 49.9058 53.7417 52.2485 52.1671 54.1279H51.9712C51.2818 54.9823 50.4008 55.6621 49.3994 56.1122C48.4325 56.6092 47.3925 56.9486 46.3185 57.1175C46.3185 57.235 46.5535 57.1958 46.3185 57.3263C47.0365 57.3263 47.4934 56.7911 48.1462 56.7389V56.8564C48.6031 56.7519 48.1462 56.6083 48.6292 56.53C48.8381 56.53 48.6292 56.6605 48.7206 56.6344C49.6608 56.2697 50.5017 55.6882 51.1749 54.9373C51.4752 54.9373 51.9712 54.2585 52.3498 54.1149C52.4543 53.8668 52.6501 53.6971 52.5979 53.5274C53.7372 52.2246 54.5118 50.6438 54.8433 48.9451C54.9216 48.5274 54.9739 48.0835 55.0261 47.6397C55.0783 47.1958 55.0261 46.765 55.0261 46.3342V43.8668C54.6083 42.3263 55.1044 40.4856 55.0261 38.6449C54.8945 37.948 54.8376 37.239 54.8564 36.53L54.6867 35.9295C54.8694 33.7885 54.8955 31.6344 54.8955 29.4021C54.9314 28.2951 54.8877 27.1869 54.765 26.0861C54.6011 24.9852 54.271 23.9156 53.7859 22.9138C52.705 20.6411 50.8554 18.8238 48.5639 17.7833C47.4322 17.2763 46.2132 16.9926 44.9739 16.9478C43.7823 16.9566 42.5923 17.035 41.4099 17.1827L41.5013 17.1044C40.1175 17.1827 38.8903 17.0391 37.5848 17.1044C34.3081 17.483 30.7963 17.0914 27.6762 17.4699C25.6706 17.2805 23.6474 17.5117 21.7363 18.1488C19.7898 18.9274 18.1369 20.2972 17.0104 22.0652C16.1515 23.3932 15.5411 24.8663 15.2088 26.4125C15.0157 28.0018 14.9589 29.6047 15.0391 31.2036C14.8564 34.5065 15.5091 37.9921 15.2611 41.3342C15.1045 42.4602 15.1045 43.6024 15.2611 44.7284C15.3985 45.8237 15.4466 46.9283 15.4047 48.0313C15.3958 50.0706 16.1826 52.033 17.5979 53.5013C18.9896 54.9623 20.8257 55.9217 22.8198 56.2297C24.5874 56.6606 26.4179 56.7712 28.2245 56.5561C30.027 56.4594 31.8344 56.5074 33.6292 56.6997C35.3133 56.4125 37.1671 57.0652 39.047 56.9739L38.9817 56.8694C39.6605 57.1827 40.483 56.4386 40.9007 56.8694H40.8355C41.188 57.1044 41.6579 56.3211 41.8799 56.5953V56.4778C42.3107 56.4778 41.8799 56.6083 42.2585 56.6475C42.389 56.6475 42.2585 56.4386 42.5718 56.5039C42.5718 56.9739 43.6292 56.3995 43.6553 56.9347C43.4203 56.9347 44.0209 57.1436 43.4987 57.248C43.6553 57.248 44.3733 57.248 44.3081 57.0522C44.2428 56.8564 44.6475 56.6083 44.2167 56.4256L44.1253 56.5953C43.9817 56.4256 44.0078 56.5039 43.9556 56.3733C43.3812 56.3733 43.3028 56.0992 42.8981 55.9948C42.6109 56.2036 42.2323 56.0731 42.0104 55.9948L41.919 55.9034C41.7885 55.7075 41.2663 56.295 41.436 55.9034C40.2741 55.9948 38.9295 55.9817 37.624 55.9948C37.4412 56.1253 36.6318 55.9948 36.906 56.2428C36.3822 56.0602 35.8203 56.0153 35.2741 56.1122C35.2863 56.1003 35.3027 56.0936 35.3198 56.0936C35.3369 56.0936 35.3533 56.1003 35.3655 56.1122C34.6605 55.7337 34.543 56.4647 33.8772 55.9948C33.7728 56.3211 32.6893 55.8903 32.3237 56.2689C32.2454 56.1906 32.2193 56.1253 32.2454 56.0731C31.0705 56.0731 29.765 55.9425 28.7728 55.9295C27.9242 56.2167 26.7101 55.7989 25.9791 56.1906C25.2239 56.0572 24.4607 55.9744 23.6945 55.9425H23.7728C22.8981 55.812 21.8537 55.4856 21.1618 55.4073C21.0835 54.9634 20.731 54.8459 20.4699 54.5326C19.6453 54.1216 18.9022 53.5642 18.2767 52.8877C18.2767 52.6919 17.7415 52.3525 17.9242 52.1566C16.882 51.1959 16.1809 49.9219 15.9269 48.5274C15.7745 47.039 15.8272 45.5367 16.0835 44.0626C15.9399 43.684 15.6396 43.2532 15.4569 42.8616C15.4569 42.3263 15.6527 41.8303 15.6135 41.295L15.6919 41.3864C15.5744 40.8903 15.8877 40.3551 15.6919 39.7676H15.7571L15.6658 39.389C15.7441 39.389 15.8746 39.389 15.8485 39.6109C15.8485 37.3263 15.8485 35.0026 15.7049 32.6658L15.7441 29.2193C15.6683 28.076 15.7297 26.9277 15.9269 25.7989V25.9817C15.9116 25.6903 15.9116 25.3984 15.9269 25.107V25.2115C16.2983 24.1388 16.8027 23.1169 17.4282 22.1697C17.4282 22.1697 17.4282 22.3786 17.5587 22.2741C17.8329 21.4778 18.5378 21.4908 18.5378 20.8642C18.5526 20.8827 18.5607 20.9057 18.5607 20.9295C18.5607 20.9532 18.5526 20.9762 18.5378 20.9948C19.2885 20.1433 20.2018 19.4505 21.2242 18.9573C22.2465 18.4641 23.3572 18.1803 24.4908 18.1227C26.3707 17.6136 28.6031 18.0574 30.6135 17.7049V17.7833C33.2245 17.483 36.0182 17.7833 38.7467 17.7833C39.8825 17.7833 40.6397 17.718 41.7754 17.7049V17.8094C42.7567 17.6481 43.7576 17.6481 44.7389 17.8094C45.7441 17.9269 46.684 18.201 47.6762 18.3316L47.5065 18.4229C47.7428 18.4127 47.9774 18.4669 48.1853 18.5796C48.4073 18.684 48.59 18.7493 48.6162 18.5796L48.8773 18.8407C49.5374 18.949 50.1383 19.2865 50.5744 19.7937C51.0663 20.3172 51.5941 20.8058 52.154 21.2558H52.0104C52.3502 21.5246 52.6228 21.8688 52.8068 22.2611L52.6893 22.1827C53.3438 23.4692 53.8728 24.8157 54.2689 26.2036L54.06 26.0861C54.2916 27.0248 54.3797 27.9932 54.3211 28.9582H54.2428L54.3603 29.4282H54.2036C54.1906 30.5509 54.3211 31.6736 54.3472 32.8616V32.8616ZM54.53 45.0156C54.53 45.0156 54.5169 44.9895 54.53 45.0156V45.0156ZM42.7676 56.0339H42.9112H42.7676Z" fill="#252020"/>
<path d="M44.321 57.6397L44.3994 57.6789L44.5821 57.5353L44.321 57.6397Z" fill="#252020"/>
<path d="M45.5091 57.2742V57.1959L44.8302 57.6267C45.1044 57.8094 45.2871 57.1436 45.5091 57.2742ZM45.7049 57.2742C45.7895 57.2927 45.878 57.2806 45.9545 57.2399C46.031 57.1993 46.0906 57.1327 46.1226 57.0522C46.0574 57.2089 45.6265 57.0914 45.7049 57.2742ZM54.9607 38.7233C54.9584 38.7493 54.9584 38.7755 54.9607 38.8016C54.9709 38.7765 54.9709 38.7484 54.9607 38.7233V38.7233Z" fill="#252020"/>
<path d="M54.3472 32.8616H54.2036C54.3119 34.0201 54.3468 35.1843 54.3081 36.3472V36.2689C54.3081 39.2062 54.4908 41.9216 54.6083 44.8329L54.53 44.7284C54.6045 44.8701 54.649 45.0257 54.6605 45.1854C54.6605 45.1854 54.5953 45.1854 54.5822 45.094C54.3342 45.7075 54.7519 46.9086 54.5822 47.2872C54.5822 47.4569 54.6997 47.5483 54.778 47.4569C54.6586 49.9058 53.7417 52.2485 52.1671 54.1279H51.9712C51.2818 54.9823 50.4008 55.6621 49.3994 56.1122C48.4325 56.6092 47.3925 56.9486 46.3185 57.1175C46.3185 57.235 46.5535 57.1958 46.3185 57.3263C47.0365 57.3263 47.4934 56.7911 48.1462 56.7389V56.8564C48.6031 56.7519 48.1462 56.6083 48.6292 56.53C48.8381 56.53 48.6292 56.6605 48.7206 56.6344C49.6608 56.2697 50.5017 55.6882 51.1749 54.9373C51.4752 54.9373 51.9712 54.2585 52.3498 54.1149C52.4543 53.8668 52.6501 53.6971 52.5979 53.5274C53.7372 52.2246 54.5118 50.6438 54.8433 48.9451C54.9216 48.5274 54.9739 48.0835 55.0261 47.6397C55.0783 47.1958 55.0261 46.765 55.0261 46.3342V43.8668C54.6083 42.3263 55.1044 40.4856 55.0261 38.6449C54.8945 37.948 54.8376 37.239 54.8564 36.53L54.6867 35.9295C54.8694 33.7885 54.8955 31.6344 54.8955 29.4021C54.9314 28.2951 54.8877 27.1869 54.765 26.0861C54.6011 24.9852 54.271 23.9156 53.7859 22.9138C52.705 20.6411 50.8554 18.8238 48.5639 17.7833C47.4322 17.2763 46.2132 16.9926 44.9739 16.9478C43.7823 16.9566 42.5923 17.035 41.4099 17.1827L41.5013 17.1044C40.1175 17.1827 38.8903 17.0391 37.5848 17.1044C34.3081 17.483 30.7963 17.0914 27.6762 17.4699C25.6706 17.2805 23.6474 17.5117 21.7363 18.1488C19.7898 18.9274 18.1369 20.2972 17.0104 22.0652C16.1515 23.3932 15.5411 24.8663 15.2088 26.4125C15.0157 28.0018 14.9589 29.6047 15.0391 31.2036C14.8564 34.5065 15.5091 37.9921 15.2611 41.3342C15.1045 42.4602 15.1045 43.6024 15.2611 44.7284C15.3985 45.8237 15.4466 46.9283 15.4047 48.0313C15.3958 50.0706 16.1826 52.033 17.5979 53.5013C18.9896 54.9623 20.8257 55.9217 22.8198 56.2297C24.5874 56.6606 26.4179 56.7712 28.2245 56.5561C30.027 56.4594 31.8344 56.5074 33.6292 56.6997C35.3133 56.4125 37.1671 57.0652 39.047 56.9739L38.9817 56.8694C39.6605 57.1827 40.483 56.4386 40.9007 56.8694H40.8355C41.188 57.1044 41.6579 56.3211 41.8799 56.5953V56.4778C42.3107 56.4778 41.8799 56.6083 42.2585 56.6475C42.389 56.6475 42.2585 56.4386 42.5718 56.5039C42.5718 56.9739 43.6292 56.3995 43.6553 56.9347C43.4203 56.9347 44.0209 57.1436 43.4987 57.248C43.6553 57.248 44.3733 57.248 44.3081 57.0522C44.2428 56.8564 44.6475 56.6083 44.2167 56.4256L44.1253 56.5953C43.9817 56.4256 44.0078 56.5039 43.9556 56.3733C43.3812 56.3733 43.3028 56.0992 42.8981 55.9948C42.6109 56.2036 42.2323 56.0731 42.0104 55.9948L41.919 55.9034C41.7885 55.7075 41.2663 56.295 41.436 55.9034C40.2741 55.9948 38.9295 55.9817 37.624 55.9948C37.4412 56.1253 36.6318 55.9948 36.906 56.2428C36.3822 56.0602 35.8203 56.0153 35.2741 56.1122C35.2863 56.1003 35.3027 56.0936 35.3198 56.0936C35.3369 56.0936 35.3533 56.1003 35.3655 56.1122C34.6605 55.7337 34.543 56.4647 33.8772 55.9948C33.7728 56.3211 32.6893 55.8903 32.3237 56.2689C32.2454 56.1906 32.2193 56.1253 32.2454 56.0731C31.0705 56.0731 29.765 55.9425 28.7728 55.9295C27.9242 56.2167 26.7101 55.7989 25.9791 56.1906C25.2239 56.0572 24.4607 55.9744 23.6945 55.9425H23.7728C22.8981 55.812 21.8537 55.4856 21.1618 55.4073C21.0835 54.9634 20.731 54.8459 20.4699 54.5326C19.6453 54.1216 18.9022 53.5642 18.2767 52.8877C18.2767 52.6919 17.7415 52.3525 17.9242 52.1566C16.882 51.1959 16.1809 49.9219 15.9269 48.5274C15.7745 47.039 15.8272 45.5367 16.0835 44.0626C15.9399 43.684 15.6396 43.2532 15.4569 42.8616C15.4569 42.3263 15.6527 41.8303 15.6135 41.295L15.6919 41.3864C15.5744 40.8903 15.8877 40.3551 15.6919 39.7676H15.7571L15.6658 39.389C15.7441 39.389 15.8746 39.389 15.8485 39.6109C15.8485 37.3263 15.8485 35.0026 15.7049 32.6658L15.7441 29.2193C15.6683 28.076 15.7297 26.9277 15.9269 25.7989V25.9817C15.9116 25.6903 15.9116 25.3984 15.9269 25.107V25.2115C16.2983 24.1388 16.8027 23.1169 17.4282 22.1697C17.4282 22.1697 17.4282 22.3786 17.5587 22.2741C17.8329 21.4778 18.5378 21.4908 18.5378 20.8642C18.5526 20.8827 18.5607 20.9057 18.5607 20.9295C18.5607 20.9532 18.5526 20.9762 18.5378 20.9948C19.2885 20.1433 20.2018 19.4505 21.2242 18.9573C22.2465 18.4641 23.3572 18.1803 24.4908 18.1227C26.3707 17.6136 28.6031 18.0574 30.6135 17.7049V17.7833C33.2245 17.483 36.0182 17.7833 38.7467 17.7833C39.8825 17.7833 40.6397 17.718 41.7754 17.7049V17.8094C42.7567 17.6481 43.7576 17.6481 44.7389 17.8094C45.7441 17.9269 46.684 18.201 47.6762 18.3316L47.5065 18.4229C47.7428 18.4127 47.9774 18.4669 48.1853 18.5796C48.4073 18.684 48.59 18.7493 48.6162 18.5796L48.8773 18.8407C49.5374 18.949 50.1383 19.2865 50.5744 19.7937C51.0663 20.3172 51.5941 20.8058 52.154 21.2558H52.0104C52.3502 21.5246 52.6228 21.8688 52.8068 22.2611L52.6893 22.1827C53.3438 23.4692 53.8728 24.8157 54.2689 26.2036L54.06 26.0861C54.2916 27.0248 54.3797 27.9932 54.3211 28.9582H54.2428L54.3603 29.4282H54.2036C54.1906 30.5509 54.3211 31.6736 54.3472 32.8616V32.8616ZM54.53 45.0156C54.53 45.0156 54.5169 44.9895 54.53 45.0156V45.0156ZM42.7676 56.0339H42.9112H42.7676Z" fill="#252020"/>
<path d="M34.8563 44.3629C34.3038 44.4145 33.753 44.2482 33.3213 43.8994C32.8896 43.5507 32.6113 43.0471 32.5456 42.4961V38.0575C32.6113 37.5064 32.8896 37.0029 33.3213 36.6541C33.753 36.3054 34.3038 36.1391 34.8563 36.1906C37.7023 36.1906 40.0782 34.3238 40.0782 32.0261C40.0782 29.7285 37.7675 27.8616 34.8563 27.8616C31.9451 27.8616 29.6344 29.7285 29.6344 32.0261C29.575 32.5721 29.3068 33.074 28.8858 33.4268C28.4649 33.7796 27.9239 33.956 27.3759 33.9191C26.8274 33.9711 26.28 33.8084 25.8491 33.465C25.4181 33.1217 25.1371 32.6246 25.0652 32.0783C25.0652 27.718 29.4516 24.1802 34.8563 24.1802C40.261 24.1802 44.6474 27.7311 44.6474 32.0783C44.6474 35.799 41.4621 38.9191 37.167 39.7546V42.5483C37.089 43.0898 36.8054 43.5805 36.3751 43.9184C35.9448 44.2563 35.4009 44.4155 34.8563 44.3629V44.3629Z" fill="#050000"/>
<path d="M34.8563 46.1645L34.9216 46.2558L35.0783 45.9817L34.8563 46.1645Z" fill="#252020"/>
<path d="M35.8094 45.4465C35.8094 45.4465 35.8094 45.329 35.7311 45.2768C35.6075 45.5808 35.4498 45.8698 35.2611 46.1384C35.6266 46.5431 35.6136 45.1984 35.8094 45.4465V45.4465ZM35.9922 45.4856C36.2663 45.5901 36.2402 45.1984 36.2272 45.0809C36.2663 45.3681 35.8355 45.1201 35.9922 45.4856Z" fill="#252020"/>
<path d="M44.4255 31.6345H44.1383C44.7258 32.2481 44.1383 32.94 44.1383 33.6449L44.0469 33.5797C43.6255 35.2588 42.7857 36.8038 41.6056 38.0705V37.9139C41.6056 37.8747 41.6056 38.2663 41.5404 38.2925C41.5241 38.2672 41.5154 38.2377 41.5154 38.2076C41.5154 38.1775 41.5241 38.148 41.5404 38.1227C40.966 37.953 40.7571 38.9974 40.3524 38.7885C40.3243 38.8583 40.3194 38.9352 40.3382 39.008C40.3569 39.0809 40.3985 39.1457 40.4568 39.1932C40.1435 39.376 39.8171 39.5849 39.4777 39.7415L38.9686 39.9896L38.5508 40.1724C38.3681 40.2898 38.1592 40.3421 38.0808 40.4726C38.1316 40.6867 38.2106 40.893 38.3158 41.0862C38.195 41.1088 38.0711 41.1088 37.9503 41.0862C38.1461 41.2037 38.2767 41.6345 38.355 41.9086C38.3918 42.0633 38.4179 42.2204 38.4333 42.3786C38.4635 42.6126 38.4635 42.8496 38.4333 43.0836C38.3241 43.5757 38.0885 44.0308 37.7496 44.4039C37.4108 44.7771 36.9805 45.0555 36.5012 45.2115C36.5012 45.4334 36.7623 45.329 36.684 45.6032C37.415 45.5248 37.415 44.5849 37.9895 44.2977L38.0939 44.4804C38.4855 44.1541 37.7414 44.141 38.1983 43.8669C38.4333 43.7624 38.4072 44.0235 38.4594 43.9452C38.6617 43.4669 38.7553 42.9497 38.7336 42.4308C38.7202 42.1254 38.6001 41.8343 38.3942 41.6084C38.603 41.6084 38.6161 41.3865 38.6161 41.2298C38.6161 41.0731 38.6161 41.1254 38.825 41.1515C38.6553 41.1515 38.6944 41.0731 38.4203 40.9556C38.4203 40.9556 38.4203 40.812 38.4986 40.7729H38.7205L39.0991 40.6293L39.8563 40.2898C40.8489 39.7767 41.7815 39.1549 42.637 38.4361C42.7839 37.8638 43.1434 37.3689 43.6422 37.0522C44.1617 36.6928 44.5582 36.1824 44.778 35.5901H44.8563C44.8765 35.0786 45.0008 34.5766 45.2218 34.1149L44.9868 33.6319C45.2972 32.9516 45.4578 32.2125 45.4578 31.4648C45.4578 30.717 45.2972 29.978 44.9868 29.2977C44.3617 27.9443 43.4743 26.7285 42.3759 25.7207C41.1974 24.613 39.7887 23.7794 38.2506 23.2794C36.7299 22.7717 35.0756 22.8414 33.603 23.4752V23.3055C32.7414 23.3957 31.8922 23.5795 31.0704 23.8538V23.7755C30.1566 24.4152 29.1775 24.8329 28.2506 25.4334C27.3065 25.9825 26.5925 26.8541 26.2401 27.8878C25.4496 28.8665 24.9638 30.0558 24.8432 31.3081C24.8079 31.6466 24.8079 31.9879 24.8432 32.3264C24.9166 32.6726 25.089 32.9901 25.3393 33.2402C25.5775 33.4718 25.8596 33.6535 26.169 33.7746C26.4783 33.8956 26.8088 33.9536 27.1409 33.9452V34.1149C27.6602 34.0809 28.1711 33.9663 28.6553 33.7755C29.1682 33.5787 29.6003 33.2156 29.8824 32.7442C30.0117 32.4955 30.0956 32.2259 30.1305 31.9478C30.1668 31.731 30.2191 31.5172 30.2871 31.3081C30.4397 30.9179 30.6185 30.5384 30.8224 30.1724C31.4868 29.5002 32.2172 28.8966 33.0025 28.3708C33.4381 28.0813 33.9358 27.8986 34.4552 27.8373C34.9746 27.7761 35.5011 27.8381 35.9921 28.0183C36.5273 28.5274 37.1931 28.5144 37.9372 28.6972C38.6814 28.8799 39.4516 29.2977 39.4255 30.0026C39.5547 31.0849 39.4614 32.1822 39.1513 33.2272C38.7923 34.3753 38.0795 35.3806 37.1148 36.0992L35.3916 36.5301C34.8717 36.5308 34.3603 36.6609 33.9033 36.9086C33.5375 37.1245 33.2531 37.4548 33.0939 37.8486C32.9829 38.3479 32.8434 38.8404 32.6761 39.3238C33.2636 40.3682 31.9451 41.4517 32.1278 42.6789H32.3237C32.0104 42.94 32.3237 43.2272 32.5587 43.3447C32.7936 43.4622 33.0156 43.5013 32.7545 43.906H32.6892C32.5978 44.1541 32.9242 44.1019 33.1722 43.906C33.4203 43.7102 33.6291 43.6188 33.5378 43.906L33.6814 43.7233C33.9033 43.7233 33.5639 43.9583 33.6814 44.128C33.7989 44.2977 33.8772 43.7624 33.9555 43.9321C33.7858 44.376 33.9555 44.3891 34.1252 44.3891C34.2949 44.3891 34.4385 44.3891 34.3733 44.9113C34.1905 44.9113 34.6083 45.3551 34.1513 45.5118C34.2558 45.6554 34.8955 45.6423 34.8302 45.1724C34.7649 44.7024 35.026 44.2846 34.8302 43.8669V44.2063C34.8095 44.0634 34.8095 43.9183 34.8302 43.7755C34.556 43.6972 34.6213 43.188 34.5691 42.953C34.3472 43.3186 34.2949 43.0314 34.2819 42.953L34.3602 42.7703C34.5691 42.4308 33.7597 43.3186 34.2166 42.7703C34.1507 42.7731 34.0855 42.7559 34.0296 42.721C33.9736 42.686 33.9296 42.6349 33.9033 42.5744C33.8817 42.4887 33.8817 42.399 33.9033 42.3133V41.752C33.6422 41.6345 33.9033 41.1384 33.4203 41.3212C33.6288 41.2454 33.8087 41.1068 33.935 40.9243C34.0612 40.7419 34.1277 40.5248 34.1252 40.3029H34.2166C34.9738 39.8721 33.5247 39.7938 34.4385 39.4021C33.7858 39.4021 34.6474 38.671 33.8772 38.4491C34.0058 38.4176 34.1402 38.4176 34.2688 38.4491C34.2641 38.3709 34.2641 38.2924 34.2688 38.2141C34.3029 38.204 34.3392 38.204 34.3733 38.2141C34.4647 38.2141 34.4777 38.2794 34.5299 38.2141C34.4255 37.94 34.5952 37.9269 34.7127 37.953C34.8302 37.9791 34.8432 37.953 35.2218 37.5744C35.508 37.7199 35.8272 37.788 36.1478 37.772C36.4684 37.7559 36.7793 37.6563 37.0495 37.4831V37.5875C37.7545 37.3656 38.6161 36.9086 38.7466 36.282C39.3341 36.8042 39.5299 36.4778 39.9477 36.4387C40.1305 35.8643 40.9399 35.1332 40.9921 34.1932C41.3707 34.1932 41.1096 33.5274 41.5926 33.6319C41.4647 32.3661 41.1017 31.1352 40.5221 30.0026C39.9922 28.8827 39.2672 27.866 38.3811 27C37.9089 27.1937 37.4687 27.4578 37.0756 27.7833C37.0756 27.7833 37.0756 27.6528 37.154 27.6789C36.7884 27.6789 36.5926 27.0784 36.1879 27.0914C36.1879 27.0131 36.1879 27.0131 36.2793 26.9478C35.9007 27.0914 35.5874 26.4256 35.1174 26.7912V26.6606L34.8432 26.8434C34.8432 26.6737 34.8432 26.4256 35.013 26.4909C34.1356 26.4385 33.2574 26.5797 32.4407 26.9046C31.624 27.2294 30.8887 27.73 30.2871 28.3708C29.6591 29.0303 29.2098 29.8391 28.9816 30.7207C28.8706 31.1467 28.8179 31.5859 28.825 32.0261C28.8316 32.123 28.8188 32.2203 28.7874 32.3122C28.7561 32.4041 28.7067 32.4888 28.6422 32.5614L28.5378 32.4308C28.5653 32.5599 28.5653 32.6934 28.5378 32.8225C28.5041 32.7791 28.4776 32.7307 28.4594 32.6789C28.2412 32.7197 28.0382 32.819 27.872 32.9661C27.7719 33.0459 27.6566 33.1044 27.5332 33.1381C27.4097 33.1718 27.2807 33.1799 27.154 33.1619C27.154 33.0836 27.2453 32.9269 27.154 32.8355C26.9712 33.0444 26.8537 32.8355 26.7884 32.7572C26.7231 32.6789 26.697 32.6006 26.3968 32.9791C26.4378 32.8401 26.5143 32.7141 26.6187 32.6136C26.5232 32.6122 26.429 32.5911 26.342 32.5515C26.2551 32.5119 26.1773 32.4548 26.1135 32.3836C26.0497 32.3125 26.0014 32.229 25.9715 32.1382C25.9416 32.0475 25.9308 31.9515 25.9399 31.8564C25.9493 31.2482 26.0966 30.6501 26.3707 30.1071C26.301 29.8135 26.3051 29.5073 26.3825 29.2158C26.46 28.9242 26.6084 28.6563 26.8145 28.4361C27.22 27.9748 27.5544 27.4556 27.8067 26.8956L27.9111 27.0261C28.3275 26.313 28.9921 25.7785 29.778 25.5248C30.5352 25.1985 31.3576 25.081 32.1278 24.8199C32.8981 24.5588 33.2114 24.4674 33.9033 24.3891V24.5979C34.1694 24.438 34.474 24.3534 34.7845 24.3534C35.095 24.3534 35.3996 24.438 35.6657 24.5979C35.9393 24.7525 36.2429 24.8465 36.556 24.8735C36.8691 24.9006 37.1843 24.86 37.4803 24.7546L37.3367 25.0157C37.6239 24.5979 37.9764 25.3421 38.12 24.5849L38.2636 24.8721C38.8119 24.4935 39.1513 24.7807 39.4647 25.0679C39.594 25.2628 39.7682 25.4237 39.9727 25.5373C40.1771 25.6509 40.4058 25.7138 40.6396 25.7207L40.496 25.8381C40.7962 25.8381 41.1357 25.9165 41.2009 26.1776H41.0704C41.3184 27.2089 42.4673 27.1959 43.0286 27.9269L42.7023 28.0575C43.2767 28.1358 43.4203 28.9844 43.7858 29.363H43.6291L43.9425 29.5196L43.6553 29.6502C44.0011 30.2735 44.2602 30.9411 44.4255 31.6345V31.6345ZM41.5012 38.0966C41.5012 38.0966 41.5012 38.0705 41.5012 38.0966V38.0966Z" fill="#252020"/>
<path d="M34.4125 42.8746V42.953C34.4125 42.953 34.4255 42.9007 34.4125 42.8746Z" fill="#252020"/>
<path d="M35.1958 50.2767C36.4936 50.2767 37.5457 49.4292 37.5457 48.3838C37.5457 47.3383 36.4936 46.4908 35.1958 46.4908C33.898 46.4908 32.8459 47.3383 32.8459 48.3838C32.8459 49.4292 33.898 50.2767 35.1958 50.2767Z" fill="#050000"/>
<path d="M39.2819 48.3968L39.3863 48.3707L39.1122 48.3446L39.2819 48.3968V48.3968Z" fill="#252020"/>
<path d="M38.6684 48.214H38.4856L39.2689 48.2924C39.6997 48.2793 38.3812 48.2793 38.6684 48.214ZM38.7467 48.1749H38.4334C38.7206 48.1226 38.3551 48.214 38.7467 48.1749ZM36.6057 45.6683C36.6057 45.6683 36.6188 45.6683 36.6057 45.6683V45.6683Z" fill="#252020"/>
<path d="M35.6396 46.7389V47.0261C35.8224 46.5431 35.8224 47.0261 35.966 46.8825V46.9739C36.1487 47.1436 36.5404 46.7911 36.932 46.7911L36.8406 46.9086C36.9059 46.8303 37.0365 46.6997 37.0365 46.7258L36.932 46.8564C36.697 47.2741 37.2715 46.7258 37.0626 47.0522C37.165 46.9677 37.2571 46.8713 37.3367 46.765C37.6239 46.8564 37.885 47.013 38.3942 47.1567C38.2971 47.2294 38.192 47.2907 38.0809 47.3394C38.9164 47.248 38.7728 47.7963 38.6683 48.1097C38.8117 48.0987 38.9557 48.0987 39.0991 48.1097C39.3341 47.9399 38.5639 47.9791 38.9164 47.8094H39.1122C39.2166 47.6919 38.6292 47.9138 38.8511 47.8094C38.9355 47.7754 39.0229 47.7491 39.1122 47.7311C38.9816 47.5875 39.1122 47.3394 38.59 47.3916C38.9686 47.1828 38.59 47.235 38.8641 46.9869C38.7222 46.9958 38.5841 47.036 38.4594 47.1044C38.3681 46.5039 37.6762 46.4125 37.3367 46.1645C36.7362 46.765 37.0234 45.7989 36.6579 45.9426V45.8642C36.5012 46.0209 36.3837 46.0731 36.3315 45.9556L36.1618 46.2689C36.1236 46.1148 36.0345 45.9781 35.9089 45.881C35.7833 45.7839 35.6286 45.7319 35.4699 45.7337C35.1932 45.7785 34.9111 45.7785 34.6344 45.7337C34.283 45.6453 33.9152 45.6453 33.5639 45.7337C33.4594 45.7673 33.3628 45.8218 33.28 45.8939C33.1972 45.966 33.13 46.0542 33.0823 46.1531C33.0347 46.252 33.0077 46.3596 33.003 46.4693C32.9982 46.579 33.0158 46.6885 33.0547 46.7911C33.0547 46.7911 32.8981 46.4778 32.8981 46.4517C32.8981 46.6867 32.5325 46.6345 32.5587 46.8694H32.4934C32.5515 46.9808 32.5762 47.1065 32.5646 47.2315C32.553 47.3566 32.5056 47.4756 32.4281 47.5744C32.3891 47.624 32.3623 47.682 32.3497 47.7438C32.3371 47.8056 32.3391 47.8695 32.3556 47.9303C32.3721 47.9912 32.4026 48.0474 32.4446 48.0944C32.4867 48.1414 32.5392 48.1779 32.5978 48.201C32.5354 48.4194 32.5477 48.6523 32.6329 48.8628C32.718 49.0734 32.8711 49.2494 33.0678 49.3629L32.9242 49.4412C33.1722 49.4412 33.1461 49.6762 33.1722 49.8982C33.1983 50.1201 33.2506 50.3551 33.4986 50.3551C33.4986 50.6162 33.9033 50.5248 34.1383 50.3551C34.3733 50.1854 34.5691 50.0418 34.6735 50.3551C34.778 50.6684 34.8824 50.564 34.9999 50.3551C35.1174 50.1462 35.2088 49.9112 35.3132 50.3551C35.8093 51.6606 36.3576 50.6292 36.2532 49.8068C36.5012 49.9373 36.5534 49.6893 36.5926 49.5196C36.6318 49.3499 36.5926 49.2454 37.1017 49.389C36.9059 49.1671 37.1017 49.2193 37.3367 49.2454C37.5717 49.2715 37.8981 49.2454 37.8459 49.141H37.65C38.2636 49.2324 36.8668 48.7755 37.7545 48.9452C38.2245 48.9452 36.697 48.658 37.2453 48.7493H37.0234H37.0887C38.0286 48.8277 36.8929 48.658 37.9503 48.7493H38.5769C38.7858 48.7493 38.5769 48.6057 38.1853 48.6188C37.7504 48.5955 37.3147 48.5955 36.8798 48.6188H36.7884C36.5366 48.6423 36.2831 48.6423 36.0312 48.6188H36.1357H35.9399C35.5352 48.5535 36.7101 48.7624 36.0312 48.6188C36.201 48.6188 36.1748 48.7102 36.1748 48.7363C36.3134 48.8196 36.4574 48.8937 36.6057 48.9582L35.9529 48.6841H35.8746C35.2349 48.2794 36.449 49.0757 35.6788 48.5796C36.201 48.9582 35.5091 48.4621 36.0965 48.9452L35.7963 48.6971C35.7963 48.6971 35.5874 48.5535 35.5613 48.5405C35.9138 48.9974 35.3785 48.3446 35.8224 49.0104C35.7049 48.8929 35.5221 48.6188 35.6527 48.906V48.8146C35.6527 48.8146 35.6527 48.9321 35.7832 49.389L35.509 48.3838C35.6135 48.7232 35.509 48.6318 35.509 48.9582C35.4177 48.6188 35.509 49.1149 35.3916 48.6188C35.4829 49.5979 35.0521 49.2976 35.026 48.5405C35.026 48.8146 34.9085 49.4151 34.8302 49.7676C34.8282 49.7285 34.8282 49.6893 34.8302 49.6501V49.1671C34.7519 49.376 34.8302 48.7624 34.7388 49.1671V49.0365V49.2193C34.7603 49.0997 34.7908 48.9818 34.8302 48.8668C34.7258 48.7493 34.6605 48.8668 34.4908 49.0365C34.3211 49.2063 34.0861 49.2193 34.0469 49.0365L34.1775 48.9452L33.9164 49.0888L34.06 48.9974C34.2688 48.8016 33.825 48.9974 33.838 48.9191L34.1513 48.7624C33.6944 48.9321 34.7127 48.4752 33.7597 48.8407L34.0861 48.7102C33.7336 48.7102 33.6944 48.5666 33.8641 48.4621C33.3811 48.4621 33.3681 48.3446 33.3811 48.2794C33.3942 48.2141 33.3811 48.1619 33.0939 47.9922H33.2767C32.7284 47.5875 33.5117 47.6005 33.5247 47.4177C33.5378 47.235 33.5247 47.2219 33.603 47.1436L33.7597 47.3003C33.5378 46.9608 33.7597 47.0261 33.9164 47.1305C34.073 47.235 34.2036 47.3525 34.073 46.9217L34.1905 47.1828C34.0077 46.765 34.3341 47.2872 34.0077 46.5953L34.1383 46.7911C33.9164 45.7859 34.5038 47.1567 34.4516 46.4909V46.6736C34.4516 46.53 34.4516 46.4125 34.556 46.5692V46.6997C34.791 47.3786 34.791 46.5822 34.9477 46.6083V46.9739C34.9477 46.5692 35.1174 46.9739 35.1957 46.765V46.9217V46.6997V46.9739C35.4046 46.9739 35.5091 46.752 35.6396 46.7389ZM36.8145 46.8433C36.8145 46.8433 36.8145 46.8564 36.8145 46.8433V46.8433Z" fill="#252020"/>
</g>
<defs>
<clipPath id="clip0_51309_1227">
<rect width="40" height="40.6789" fill="white" transform="translate(15 17)"/>
</clipPath>
</defs>
</svg>
